<mxfile host="Electron" modified="2023-12-01T21:57:27.735Z" agent="Mozilla/5.0 (Windows NT 10.0; Win64; x64) AppleWebKit/537.36 (KHTML, like Gecko) draw.io/22.1.2 Chrome/114.0.5735.289 Electron/25.9.4 Safari/537.36" version="22.1.2" etag="Ip_kD1FpfNjAisaVBmDL" type="device">
  <diagram id="A1l-yueoGayz7dUu3gW5" name="Page-1">
    <mxGraphModel dx="1370" dy="585" grid="1" gridSize="10" guides="1" tooltips="1" connect="1" arrows="1" fold="1" page="1" pageScale="1" pageWidth="1169" pageHeight="827" math="0" shadow="0">
      <root>
        <mxCell id="0" />
        <mxCell id="1" parent="0" />
        <mxCell id="464" value="" style="rounded=0;whiteSpace=wrap;html=1;dashed=1;strokeColor=#82b366;strokeWidth=2;fontSize=14;fillColor=none;gradientColor=#97d077;" parent="1" vertex="1">
          <mxGeometry x="680" y="408" width="360" height="290" as="geometry" />
        </mxCell>
        <mxCell id="463" value="" style="rounded=0;whiteSpace=wrap;html=1;dashed=1;strokeColor=#009999;strokeWidth=2;fontSize=14;fontColor=#ffffff;fillColor=none;" parent="1" vertex="1">
          <mxGeometry x="470" y="148" width="380" height="210" as="geometry" />
        </mxCell>
        <mxCell id="409" value="" style="ellipse;whiteSpace=wrap;html=1;aspect=fixed;dashed=1;strokeColor=default;strokeWidth=2;fontSize=10;fontColor=#C73500;fillColor=none;" parent="1" vertex="1">
          <mxGeometry x="632.25" y="230.25" width="115.5" height="115.5" as="geometry" />
        </mxCell>
        <mxCell id="458" value="" style="rounded=0;whiteSpace=wrap;html=1;dashed=1;strokeColor=#005700;strokeWidth=2;fontSize=20;fontColor=#ffffff;fillColor=none;" parent="1" vertex="1">
          <mxGeometry x="273.5" y="578" width="33" height="110" as="geometry" />
        </mxCell>
        <mxCell id="456" value="" style="rounded=0;whiteSpace=wrap;html=1;dashed=1;strokeColor=#005700;strokeWidth=2;fontSize=20;fontColor=#ffffff;fillColor=none;" parent="1" vertex="1">
          <mxGeometry x="235" y="168" width="69" height="110" as="geometry" />
        </mxCell>
        <mxCell id="460" value="" style="rounded=0;whiteSpace=wrap;html=1;dashed=1;strokeColor=#005700;strokeWidth=2;fontSize=20;fontColor=#ffffff;fillColor=none;" parent="1" vertex="1">
          <mxGeometry x="140" y="373" width="90" height="115" as="geometry" />
        </mxCell>
        <mxCell id="228" value="&lt;font style=&quot;&quot;&gt;&lt;font color=&quot;#bd7000&quot; style=&quot;font-size: 30px;&quot;&gt;...&lt;/font&gt;&lt;br style=&quot;font-size: 14px;&quot;&gt;&lt;/font&gt;" style="text;html=1;align=center;verticalAlign=middle;resizable=0;points=[];autosize=1;strokeColor=none;fillColor=none;fontColor=default;rotation=0;fontStyle=1;fontSize=14;" parent="1" vertex="1">
          <mxGeometry x="243.99999999999977" y="627.9999999999998" width="50" height="50" as="geometry" />
        </mxCell>
        <mxCell id="229" value="&lt;font style=&quot;&quot;&gt;&lt;font color=&quot;#bd7000&quot; style=&quot;font-size: 30px;&quot;&gt;...&lt;/font&gt;&lt;br style=&quot;font-size: 14px;&quot;&gt;&lt;/font&gt;" style="text;html=1;align=center;verticalAlign=middle;resizable=0;points=[];autosize=1;strokeColor=none;fillColor=none;fontColor=default;rotation=0;fontStyle=1;fontSize=14;" parent="1" vertex="1">
          <mxGeometry x="284.9999999999998" y="627.9999999999998" width="50" height="50" as="geometry" />
        </mxCell>
        <mxCell id="411" value="" style="ellipse;whiteSpace=wrap;html=1;aspect=fixed;dashed=1;strokeColor=default;strokeWidth=2;fontSize=10;fontColor=#C73500;fillColor=none;" parent="1" vertex="1">
          <mxGeometry x="477.25" y="365" width="125.5" height="125.5" as="geometry" />
        </mxCell>
        <mxCell id="423" value="" style="rounded=0;whiteSpace=wrap;html=1;dashed=1;strokeColor=#82b366;strokeWidth=2;fontSize=12;fillColor=none;gradientColor=#97d077;" parent="1" vertex="1">
          <mxGeometry x="130" y="158" width="310" height="540" as="geometry" />
        </mxCell>
        <mxCell id="389" value="" style="rounded=0;whiteSpace=wrap;html=1;dashed=1;strokeColor=default;strokeWidth=1;fontSize=30;fontColor=#990000;fillColor=none;" parent="1" vertex="1">
          <mxGeometry x="930" y="568" width="80" height="40" as="geometry" />
        </mxCell>
        <mxCell id="396" value="" style="rounded=0;whiteSpace=wrap;html=1;dashed=1;strokeColor=#005700;strokeWidth=2;fontSize=20;fontColor=#ffffff;fillColor=none;" parent="1" vertex="1">
          <mxGeometry x="910" y="560.5" width="120" height="67.5" as="geometry" />
        </mxCell>
        <mxCell id="378" value="" style="rounded=0;whiteSpace=wrap;html=1;dashed=1;strokeColor=default;strokeWidth=1;fontSize=30;fontColor=#990000;fillColor=none;" parent="1" vertex="1">
          <mxGeometry x="930" y="498" width="80" height="40" as="geometry" />
        </mxCell>
        <mxCell id="395" value="" style="rounded=0;whiteSpace=wrap;html=1;dashed=1;strokeColor=#005700;strokeWidth=2;fontSize=20;fontColor=#ffffff;fillColor=none;" parent="1" vertex="1">
          <mxGeometry x="910" y="423" width="120" height="125" as="geometry" />
        </mxCell>
        <mxCell id="360" value="" style="rounded=0;whiteSpace=wrap;html=1;dashed=1;strokeColor=default;strokeWidth=1;fontSize=30;fontColor=#990000;fillColor=none;" parent="1" vertex="1">
          <mxGeometry x="930" y="428" width="80" height="50" as="geometry" />
        </mxCell>
        <mxCell id="80" style="edgeStyle=none;html=1;exitX=0.5;exitY=1;exitDx=0;exitDy=0;entryX=0.5;entryY=0;entryDx=0;entryDy=0;endArrow=none;endFill=0;fillColor=#e51400;strokeColor=#B20000;" parent="1" source="70" target="72" edge="1">
          <mxGeometry relative="1" as="geometry" />
        </mxCell>
        <mxCell id="101" style="edgeStyle=none;html=1;exitX=1;exitY=0.5;exitDx=0;exitDy=0;entryX=0;entryY=0.5;entryDx=0;entryDy=0;endArrow=none;endFill=0;fillColor=#647687;strokeColor=#314354;" parent="1" source="70" target="100" edge="1">
          <mxGeometry relative="1" as="geometry" />
        </mxCell>
        <mxCell id="70" value="" style="whiteSpace=wrap;html=1;aspect=fixed;fillColor=#e51400;strokeColor=#B20000;fontColor=#ffffff;" parent="1" vertex="1">
          <mxGeometry x="200" y="418" width="20" height="20" as="geometry" />
        </mxCell>
        <mxCell id="81" style="edgeStyle=none;html=1;entryX=1;entryY=0.5;entryDx=0;entryDy=0;endArrow=none;endFill=0;fillColor=#e51400;strokeColor=#B20000;" parent="1" source="72" target="76" edge="1">
          <mxGeometry relative="1" as="geometry" />
        </mxCell>
        <mxCell id="72" value="" style="whiteSpace=wrap;html=1;aspect=fixed;fillColor=#e51400;strokeColor=#B20000;fontColor=#ffffff;" parent="1" vertex="1">
          <mxGeometry x="200" y="458" width="20" height="20" as="geometry" />
        </mxCell>
        <mxCell id="79" style="edgeStyle=none;html=1;exitX=0.5;exitY=1;exitDx=0;exitDy=0;entryX=0.5;entryY=0;entryDx=0;entryDy=0;endArrow=none;endFill=0;fillColor=#e51400;strokeColor=#B20000;" parent="1" source="73" target="70" edge="1">
          <mxGeometry relative="1" as="geometry" />
        </mxCell>
        <mxCell id="95" style="edgeStyle=none;html=1;exitX=0.5;exitY=0;exitDx=0;exitDy=0;entryX=0.5;entryY=1;entryDx=0;entryDy=0;endArrow=none;endFill=0;fillColor=#647687;strokeColor=#314354;" parent="1" source="73" target="94" edge="1">
          <mxGeometry relative="1" as="geometry" />
        </mxCell>
        <mxCell id="73" value="" style="whiteSpace=wrap;html=1;aspect=fixed;fillColor=#e51400;strokeColor=#B20000;fontColor=#ffffff;" parent="1" vertex="1">
          <mxGeometry x="200" y="378" width="20" height="20" as="geometry" />
        </mxCell>
        <mxCell id="78" style="edgeStyle=none;html=1;exitX=1;exitY=0.5;exitDx=0;exitDy=0;entryX=0;entryY=0.5;entryDx=0;entryDy=0;endArrow=none;endFill=0;fillColor=#e51400;strokeColor=#B20000;" parent="1" source="74" target="73" edge="1">
          <mxGeometry relative="1" as="geometry" />
        </mxCell>
        <mxCell id="84" style="edgeStyle=none;html=1;exitX=0;exitY=0.5;exitDx=0;exitDy=0;endArrow=none;endFill=0;fillColor=#e51400;strokeColor=#B20000;" parent="1" source="74" edge="1">
          <mxGeometry relative="1" as="geometry">
            <mxPoint x="140" y="387.9677419354839" as="targetPoint" />
          </mxGeometry>
        </mxCell>
        <mxCell id="90" style="edgeStyle=none;html=1;exitX=1;exitY=1;exitDx=0;exitDy=0;entryX=0;entryY=0;entryDx=0;entryDy=0;endArrow=none;endFill=0;fillColor=#e51400;strokeColor=#B20000;" parent="1" source="74" target="70" edge="1">
          <mxGeometry relative="1" as="geometry" />
        </mxCell>
        <mxCell id="93" style="edgeStyle=none;html=1;exitX=0.5;exitY=0;exitDx=0;exitDy=0;entryX=0.5;entryY=1;entryDx=0;entryDy=0;endArrow=none;endFill=0;fillColor=#647687;strokeColor=#314354;" parent="1" source="74" target="91" edge="1">
          <mxGeometry relative="1" as="geometry" />
        </mxCell>
        <mxCell id="74" value="" style="whiteSpace=wrap;html=1;aspect=fixed;fillColor=#e51400;strokeColor=#B20000;fontColor=#ffffff;" parent="1" vertex="1">
          <mxGeometry x="160" y="378" width="20" height="20" as="geometry" />
        </mxCell>
        <mxCell id="77" style="edgeStyle=none;html=1;exitX=0.5;exitY=0;exitDx=0;exitDy=0;entryX=0.5;entryY=1;entryDx=0;entryDy=0;fillColor=#e51400;strokeColor=#B20000;endArrow=none;endFill=0;" parent="1" source="75" target="74" edge="1">
          <mxGeometry relative="1" as="geometry" />
        </mxCell>
        <mxCell id="83" style="edgeStyle=none;html=1;exitX=1;exitY=0.5;exitDx=0;exitDy=0;entryX=0;entryY=0.5;entryDx=0;entryDy=0;endArrow=none;endFill=0;fillColor=#e51400;strokeColor=#B20000;" parent="1" source="75" target="70" edge="1">
          <mxGeometry relative="1" as="geometry" />
        </mxCell>
        <mxCell id="85" style="edgeStyle=none;html=1;exitX=0;exitY=0.5;exitDx=0;exitDy=0;endArrow=none;endFill=0;fillColor=#e51400;strokeColor=#B20000;" parent="1" source="75" edge="1">
          <mxGeometry relative="1" as="geometry">
            <mxPoint x="140" y="427.9677419354839" as="targetPoint" />
          </mxGeometry>
        </mxCell>
        <mxCell id="88" style="edgeStyle=none;html=1;exitX=1;exitY=1;exitDx=0;exitDy=0;entryX=0;entryY=0;entryDx=0;entryDy=0;endArrow=none;endFill=0;fillColor=#e51400;strokeColor=#B20000;" parent="1" source="75" target="72" edge="1">
          <mxGeometry relative="1" as="geometry" />
        </mxCell>
        <mxCell id="89" style="edgeStyle=none;html=1;exitX=1;exitY=0;exitDx=0;exitDy=0;entryX=0;entryY=1;entryDx=0;entryDy=0;endArrow=none;endFill=0;fillColor=#e51400;strokeColor=#B20000;" parent="1" source="75" target="73" edge="1">
          <mxGeometry relative="1" as="geometry" />
        </mxCell>
        <mxCell id="75" value="" style="whiteSpace=wrap;html=1;aspect=fixed;fillColor=#e51400;strokeColor=#B20000;fontColor=#ffffff;" parent="1" vertex="1">
          <mxGeometry x="160" y="418" width="20" height="20" as="geometry" />
        </mxCell>
        <mxCell id="82" style="edgeStyle=none;html=1;exitX=0.5;exitY=0;exitDx=0;exitDy=0;entryX=0.5;entryY=1;entryDx=0;entryDy=0;endArrow=none;endFill=0;fillColor=#e51400;strokeColor=#B20000;" parent="1" source="76" target="75" edge="1">
          <mxGeometry relative="1" as="geometry" />
        </mxCell>
        <mxCell id="86" style="edgeStyle=none;html=1;endArrow=none;endFill=0;fillColor=#e51400;strokeColor=#B20000;" parent="1" source="76" edge="1">
          <mxGeometry relative="1" as="geometry">
            <mxPoint x="140" y="468" as="targetPoint" />
          </mxGeometry>
        </mxCell>
        <mxCell id="87" style="edgeStyle=none;html=1;exitX=1;exitY=0;exitDx=0;exitDy=0;entryX=0;entryY=1;entryDx=0;entryDy=0;endArrow=none;endFill=0;fillColor=#e51400;strokeColor=#B20000;" parent="1" source="76" target="70" edge="1">
          <mxGeometry relative="1" as="geometry" />
        </mxCell>
        <mxCell id="76" value="" style="whiteSpace=wrap;html=1;aspect=fixed;fillColor=#e51400;strokeColor=#B20000;fontColor=#ffffff;" parent="1" vertex="1">
          <mxGeometry x="160" y="458" width="20" height="20" as="geometry" />
        </mxCell>
        <mxCell id="148" style="edgeStyle=none;html=1;exitX=0.5;exitY=0;exitDx=0;exitDy=0;entryX=0.5;entryY=0;entryDx=0;entryDy=0;startArrow=classic;startFill=1;endArrow=classic;endFill=1;fillColor=#e51400;strokeColor=#B20000;" parent="1" source="91" target="133" edge="1">
          <mxGeometry relative="1" as="geometry">
            <Array as="points">
              <mxPoint x="170" y="318" />
              <mxPoint x="390" y="318" />
            </Array>
          </mxGeometry>
        </mxCell>
        <mxCell id="91" value="" style="whiteSpace=wrap;html=1;aspect=fixed;fillColor=#647687;strokeColor=#314354;fontColor=#ffffff;" parent="1" vertex="1">
          <mxGeometry x="160" y="338" width="20" height="20" as="geometry" />
        </mxCell>
        <mxCell id="138" style="edgeStyle=none;html=1;exitX=1;exitY=0.5;exitDx=0;exitDy=0;entryX=0;entryY=0.5;entryDx=0;entryDy=0;endArrow=none;endFill=0;fillColor=#d5e8d4;gradientColor=#97d077;strokeColor=#82b366;" parent="1" source="92" target="136" edge="1">
          <mxGeometry relative="1" as="geometry" />
        </mxCell>
        <mxCell id="142" style="edgeStyle=none;html=1;exitX=1;exitY=0;exitDx=0;exitDy=0;entryX=0;entryY=1;entryDx=0;entryDy=0;endArrow=none;endFill=0;fillColor=#d5e8d4;gradientColor=#97d077;strokeColor=#82b366;" parent="1" source="92" target="134" edge="1">
          <mxGeometry relative="1" as="geometry" />
        </mxCell>
        <mxCell id="222" style="edgeStyle=none;html=1;exitX=1;exitY=1;exitDx=0;exitDy=0;entryX=0.5;entryY=0;entryDx=0;entryDy=0;strokeColor=#BD7000;fontSize=30;fontColor=#B20000;startArrow=classic;startFill=1;endArrow=classic;endFill=1;" parent="1" source="92" target="194" edge="1">
          <mxGeometry relative="1" as="geometry">
            <Array as="points">
              <mxPoint x="300" y="498" />
              <mxPoint x="330" y="498" />
              <mxPoint x="330" y="568" />
              <mxPoint x="370" y="568" />
            </Array>
          </mxGeometry>
        </mxCell>
        <mxCell id="92" value="" style="whiteSpace=wrap;html=1;aspect=fixed;fillColor=#d5e8d4;strokeColor=#82b366;gradientColor=#97d077;" parent="1" vertex="1">
          <mxGeometry x="280" y="418" width="20" height="20" as="geometry" />
        </mxCell>
        <mxCell id="147" style="edgeStyle=none;html=1;exitX=1;exitY=0.5;exitDx=0;exitDy=0;entryX=0.5;entryY=0;entryDx=0;entryDy=0;startArrow=classic;startFill=1;endArrow=classic;endFill=1;fillColor=#e51400;strokeColor=#B20000;" parent="1" source="94" target="134" edge="1">
          <mxGeometry relative="1" as="geometry">
            <Array as="points">
              <mxPoint x="340" y="348" />
            </Array>
          </mxGeometry>
        </mxCell>
        <mxCell id="94" value="" style="whiteSpace=wrap;html=1;aspect=fixed;fillColor=#647687;strokeColor=#314354;fontColor=#ffffff;" parent="1" vertex="1">
          <mxGeometry x="200" y="338" width="20" height="20" as="geometry" />
        </mxCell>
        <mxCell id="98" style="edgeStyle=none;html=1;exitX=0.5;exitY=0;exitDx=0;exitDy=0;entryX=0.5;entryY=1;entryDx=0;entryDy=0;endArrow=none;endFill=0;fillColor=#647687;strokeColor=#314354;" parent="1" source="96" target="76" edge="1">
          <mxGeometry relative="1" as="geometry" />
        </mxCell>
        <mxCell id="149" style="edgeStyle=none;html=1;exitX=0.5;exitY=1;exitDx=0;exitDy=0;entryX=0.5;entryY=1;entryDx=0;entryDy=0;startArrow=classic;startFill=1;endArrow=classic;endFill=1;fillColor=#e51400;strokeColor=#B20000;" parent="1" source="96" target="133" edge="1">
          <mxGeometry relative="1" as="geometry">
            <Array as="points">
              <mxPoint x="170" y="538" />
              <mxPoint x="390" y="538" />
            </Array>
          </mxGeometry>
        </mxCell>
        <mxCell id="96" value="" style="whiteSpace=wrap;html=1;aspect=fixed;fillColor=#647687;strokeColor=#314354;fontColor=#ffffff;" parent="1" vertex="1">
          <mxGeometry x="160" y="498" width="20" height="20" as="geometry" />
        </mxCell>
        <mxCell id="99" style="edgeStyle=none;html=1;exitX=0.5;exitY=0;exitDx=0;exitDy=0;entryX=0.5;entryY=1;entryDx=0;entryDy=0;endArrow=none;endFill=0;fillColor=#647687;strokeColor=#314354;" parent="1" source="97" target="72" edge="1">
          <mxGeometry relative="1" as="geometry" />
        </mxCell>
        <mxCell id="146" style="edgeStyle=none;html=1;exitX=1;exitY=0.5;exitDx=0;exitDy=0;entryX=0.5;entryY=1;entryDx=0;entryDy=0;endArrow=classic;endFill=1;startArrow=classic;startFill=1;fillColor=#e51400;strokeColor=#B20000;" parent="1" source="97" target="135" edge="1">
          <mxGeometry relative="1" as="geometry">
            <Array as="points">
              <mxPoint x="340" y="508" />
            </Array>
          </mxGeometry>
        </mxCell>
        <mxCell id="97" value="" style="whiteSpace=wrap;html=1;aspect=fixed;fillColor=#647687;strokeColor=#314354;fontColor=#ffffff;" parent="1" vertex="1">
          <mxGeometry x="200" y="498" width="20" height="20" as="geometry" />
        </mxCell>
        <mxCell id="137" style="edgeStyle=none;html=1;entryX=0;entryY=0.5;entryDx=0;entryDy=0;endArrow=classic;endFill=1;startArrow=classic;startFill=1;fillColor=#e51400;strokeColor=#B20000;" parent="1" source="100" target="92" edge="1">
          <mxGeometry relative="1" as="geometry" />
        </mxCell>
        <mxCell id="100" value="" style="whiteSpace=wrap;html=1;aspect=fixed;fillColor=#647687;strokeColor=#314354;fontColor=#ffffff;" parent="1" vertex="1">
          <mxGeometry x="240" y="418" width="20" height="20" as="geometry" />
        </mxCell>
        <mxCell id="167" style="edgeStyle=none;html=1;exitX=0.5;exitY=0;exitDx=0;exitDy=0;entryX=0.5;entryY=1;entryDx=0;entryDy=0;startArrow=none;startFill=0;endArrow=none;endFill=0;strokeColor=#C73500;" parent="1" source="132" target="155" edge="1">
          <mxGeometry relative="1" as="geometry" />
        </mxCell>
        <mxCell id="132" value="" style="whiteSpace=wrap;html=1;aspect=fixed;fillColor=#fa6800;strokeColor=#C73500;fontColor=#000000;" parent="1" vertex="1">
          <mxGeometry x="280" y="248" width="20" height="20" as="geometry" />
        </mxCell>
        <mxCell id="144" style="edgeStyle=none;html=1;exitX=0;exitY=1;exitDx=0;exitDy=0;entryX=1;entryY=0;entryDx=0;entryDy=0;endArrow=none;endFill=0;fillColor=#d5e8d4;gradientColor=#97d077;strokeColor=#82b366;" parent="1" source="133" target="135" edge="1">
          <mxGeometry relative="1" as="geometry" />
        </mxCell>
        <mxCell id="263" style="edgeStyle=none;html=1;exitX=1;exitY=0.5;exitDx=0;exitDy=0;dashed=1;strokeColor=#006EAF;fontSize=30;fontColor=#990000;startArrow=none;startFill=0;endArrow=none;endFill=0;fillColor=#1ba1e2;entryX=0;entryY=0.5;entryDx=0;entryDy=0;" parent="1" source="135" target="252" edge="1">
          <mxGeometry relative="1" as="geometry">
            <mxPoint x="490" y="498" as="targetPoint" />
          </mxGeometry>
        </mxCell>
        <mxCell id="133" value="" style="whiteSpace=wrap;html=1;aspect=fixed;fillColor=#d5e8d4;strokeColor=#82b366;gradientColor=#97d077;" parent="1" vertex="1">
          <mxGeometry x="380" y="418" width="20" height="20" as="geometry" />
        </mxCell>
        <mxCell id="143" style="edgeStyle=none;html=1;exitX=1;exitY=1;exitDx=0;exitDy=0;entryX=0;entryY=0;entryDx=0;entryDy=0;endArrow=none;endFill=0;fillColor=#d5e8d4;gradientColor=#97d077;strokeColor=#82b366;" parent="1" source="134" target="133" edge="1">
          <mxGeometry relative="1" as="geometry" />
        </mxCell>
        <mxCell id="262" style="edgeStyle=none;html=1;entryX=0.42;entryY=0.183;entryDx=0;entryDy=0;strokeColor=#006EAF;fontSize=30;fontColor=#990000;startArrow=none;startFill=0;endArrow=none;endFill=0;dashed=1;fillColor=#1ba1e2;entryPerimeter=0;exitX=1;exitY=0.5;exitDx=0;exitDy=0;" parent="1" source="134" target="411" edge="1">
          <mxGeometry relative="1" as="geometry" />
        </mxCell>
        <mxCell id="134" value="" style="whiteSpace=wrap;html=1;aspect=fixed;fillColor=#d5e8d4;strokeColor=#82b366;gradientColor=#97d077;" parent="1" vertex="1">
          <mxGeometry x="330" y="378" width="20" height="20" as="geometry" />
        </mxCell>
        <mxCell id="145" style="edgeStyle=none;html=1;exitX=0;exitY=0;exitDx=0;exitDy=0;entryX=1;entryY=1;entryDx=0;entryDy=0;endArrow=none;endFill=0;fillColor=#d5e8d4;gradientColor=#97d077;strokeColor=#82b366;" parent="1" source="135" target="92" edge="1">
          <mxGeometry relative="1" as="geometry" />
        </mxCell>
        <mxCell id="135" value="" style="whiteSpace=wrap;html=1;aspect=fixed;fillColor=#d5e8d4;strokeColor=#82b366;gradientColor=#97d077;" parent="1" vertex="1">
          <mxGeometry x="330" y="458" width="20" height="20" as="geometry" />
        </mxCell>
        <mxCell id="139" style="edgeStyle=none;html=1;exitX=1;exitY=0.5;exitDx=0;exitDy=0;entryX=-0.052;entryY=0.506;entryDx=0;entryDy=0;entryPerimeter=0;endArrow=none;endFill=0;fillColor=#d5e8d4;gradientColor=#97d077;strokeColor=#82b366;" parent="1" source="136" target="133" edge="1">
          <mxGeometry relative="1" as="geometry" />
        </mxCell>
        <mxCell id="140" style="edgeStyle=none;html=1;exitX=0.5;exitY=0;exitDx=0;exitDy=0;entryX=0.5;entryY=1;entryDx=0;entryDy=0;endArrow=none;endFill=0;fillColor=#d5e8d4;gradientColor=#97d077;strokeColor=#82b366;" parent="1" source="136" target="134" edge="1">
          <mxGeometry relative="1" as="geometry" />
        </mxCell>
        <mxCell id="141" style="edgeStyle=none;html=1;exitX=0.5;exitY=1;exitDx=0;exitDy=0;entryX=0.5;entryY=0;entryDx=0;entryDy=0;endArrow=none;endFill=0;fillColor=#d5e8d4;gradientColor=#97d077;strokeColor=#82b366;" parent="1" source="136" target="135" edge="1">
          <mxGeometry relative="1" as="geometry" />
        </mxCell>
        <mxCell id="136" value="" style="whiteSpace=wrap;html=1;aspect=fixed;fillColor=#d5e8d4;strokeColor=#82b366;gradientColor=#97d077;" parent="1" vertex="1">
          <mxGeometry x="330" y="418" width="20" height="20" as="geometry" />
        </mxCell>
        <mxCell id="183" style="edgeStyle=none;html=1;exitX=1;exitY=0.5;exitDx=0;exitDy=0;entryX=1;entryY=0;entryDx=0;entryDy=0;strokeColor=#C73500;startArrow=classic;startFill=1;endArrow=classic;endFill=1;" parent="1" source="150" target="133" edge="1">
          <mxGeometry relative="1" as="geometry">
            <Array as="points">
              <mxPoint x="400" y="218" />
            </Array>
          </mxGeometry>
        </mxCell>
        <mxCell id="150" value="" style="whiteSpace=wrap;html=1;aspect=fixed;fillColor=#647687;strokeColor=#314354;fontColor=#ffffff;" parent="1" vertex="1">
          <mxGeometry x="360" y="208" width="20" height="20" as="geometry" />
        </mxCell>
        <mxCell id="179" style="edgeStyle=none;html=1;exitX=0.5;exitY=0;exitDx=0;exitDy=0;entryX=0.5;entryY=1;entryDx=0;entryDy=0;strokeColor=#314354;startArrow=none;startFill=0;endArrow=none;endFill=0;fillColor=#647687;" parent="1" source="151" target="132" edge="1">
          <mxGeometry relative="1" as="geometry" />
        </mxCell>
        <mxCell id="180" style="edgeStyle=none;html=1;exitX=0.5;exitY=1;exitDx=0;exitDy=0;entryX=0.5;entryY=0;entryDx=0;entryDy=0;strokeColor=#C73500;startArrow=classic;startFill=1;endArrow=classic;endFill=1;" parent="1" source="151" target="92" edge="1">
          <mxGeometry relative="1" as="geometry" />
        </mxCell>
        <mxCell id="151" value="" style="whiteSpace=wrap;html=1;aspect=fixed;fillColor=#647687;strokeColor=#314354;fontColor=#ffffff;" parent="1" vertex="1">
          <mxGeometry x="280" y="288" width="20" height="20" as="geometry" />
        </mxCell>
        <mxCell id="161" style="edgeStyle=none;html=1;exitX=1;exitY=0.5;exitDx=0;exitDy=0;entryX=0;entryY=0.5;entryDx=0;entryDy=0;startArrow=none;startFill=0;endArrow=none;endFill=0;fillColor=#fa6800;strokeColor=#C73500;" parent="1" source="152" target="132" edge="1">
          <mxGeometry relative="1" as="geometry" />
        </mxCell>
        <mxCell id="166" style="edgeStyle=none;html=1;exitX=0.5;exitY=0;exitDx=0;exitDy=0;entryX=0.5;entryY=1;entryDx=0;entryDy=0;startArrow=none;startFill=0;endArrow=none;endFill=0;strokeColor=#C73500;" parent="1" source="152" target="154" edge="1">
          <mxGeometry relative="1" as="geometry" />
        </mxCell>
        <mxCell id="170" style="edgeStyle=none;html=1;exitX=1;exitY=0;exitDx=0;exitDy=0;entryX=0;entryY=1;entryDx=0;entryDy=0;startArrow=none;startFill=0;endArrow=none;endFill=0;strokeColor=#C73500;" parent="1" source="152" target="155" edge="1">
          <mxGeometry relative="1" as="geometry" />
        </mxCell>
        <mxCell id="181" style="edgeStyle=none;html=1;exitX=0.5;exitY=1;exitDx=0;exitDy=0;entryX=0;entryY=0;entryDx=0;entryDy=0;strokeColor=#C73500;startArrow=classic;startFill=1;endArrow=classic;endFill=1;" parent="1" source="160" target="92" edge="1">
          <mxGeometry relative="1" as="geometry">
            <Array as="points">
              <mxPoint x="210" y="288" />
              <mxPoint x="250" y="288" />
              <mxPoint x="250" y="358" />
              <mxPoint x="280" y="358" />
            </Array>
          </mxGeometry>
        </mxCell>
        <mxCell id="152" value="" style="whiteSpace=wrap;html=1;aspect=fixed;fillColor=#fa6800;strokeColor=#C73500;fontColor=#000000;" parent="1" vertex="1">
          <mxGeometry x="240" y="248" width="20" height="20" as="geometry" />
        </mxCell>
        <mxCell id="163" style="edgeStyle=none;html=1;exitX=0.5;exitY=0;exitDx=0;exitDy=0;entryX=0.5;entryY=1;entryDx=0;entryDy=0;startArrow=none;startFill=0;endArrow=none;endFill=0;strokeColor=#C73500;" parent="1" source="153" target="156" edge="1">
          <mxGeometry relative="1" as="geometry" />
        </mxCell>
        <mxCell id="177" style="edgeStyle=none;html=1;exitX=1;exitY=0.5;exitDx=0;exitDy=0;entryX=0;entryY=0.5;entryDx=0;entryDy=0;strokeColor=#314354;startArrow=none;startFill=0;endArrow=none;endFill=0;fillColor=#647687;" parent="1" source="153" target="158" edge="1">
          <mxGeometry relative="1" as="geometry" />
        </mxCell>
        <mxCell id="182" style="edgeStyle=none;html=1;exitX=0.5;exitY=1;exitDx=0;exitDy=0;entryX=1;entryY=0;entryDx=0;entryDy=0;strokeColor=#C73500;startArrow=classic;startFill=1;endArrow=classic;endFill=1;" parent="1" source="158" target="92" edge="1">
          <mxGeometry relative="1" as="geometry">
            <Array as="points">
              <mxPoint x="370" y="288" />
              <mxPoint x="330" y="288" />
              <mxPoint x="330" y="358" />
              <mxPoint x="300" y="358" />
            </Array>
          </mxGeometry>
        </mxCell>
        <mxCell id="153" value="" style="whiteSpace=wrap;html=1;aspect=fixed;fillColor=#fa6800;strokeColor=#C73500;fontColor=#000000;" parent="1" vertex="1">
          <mxGeometry x="320" y="248" width="20" height="20" as="geometry" />
        </mxCell>
        <mxCell id="171" style="edgeStyle=none;html=1;exitX=1;exitY=1;exitDx=0;exitDy=0;entryX=0;entryY=0;entryDx=0;entryDy=0;startArrow=none;startFill=0;endArrow=none;endFill=0;strokeColor=#C73500;" parent="1" source="154" target="132" edge="1">
          <mxGeometry relative="1" as="geometry" />
        </mxCell>
        <mxCell id="172" style="edgeStyle=none;html=1;exitX=0.5;exitY=0;exitDx=0;exitDy=0;strokeColor=#C73500;startArrow=none;startFill=0;endArrow=none;endFill=0;" parent="1" source="154" edge="1">
          <mxGeometry relative="1" as="geometry">
            <mxPoint x="249.90697674418607" y="188" as="targetPoint" />
          </mxGeometry>
        </mxCell>
        <mxCell id="175" style="edgeStyle=none;html=1;entryX=1;entryY=0.5;entryDx=0;entryDy=0;strokeColor=#314354;startArrow=none;startFill=0;endArrow=none;endFill=0;fillColor=#647687;" parent="1" source="154" target="159" edge="1">
          <mxGeometry relative="1" as="geometry" />
        </mxCell>
        <mxCell id="154" value="" style="whiteSpace=wrap;html=1;aspect=fixed;fillColor=#fa6800;strokeColor=#C73500;fontColor=#000000;" parent="1" vertex="1">
          <mxGeometry x="240" y="208" width="20" height="20" as="geometry" />
        </mxCell>
        <mxCell id="165" style="edgeStyle=none;html=1;exitX=0;exitY=0.5;exitDx=0;exitDy=0;entryX=1;entryY=0.5;entryDx=0;entryDy=0;startArrow=none;startFill=0;endArrow=none;endFill=0;strokeColor=#C73500;" parent="1" source="155" target="154" edge="1">
          <mxGeometry relative="1" as="geometry" />
        </mxCell>
        <mxCell id="173" style="edgeStyle=none;html=1;exitX=0.5;exitY=0;exitDx=0;exitDy=0;strokeColor=#C73500;startArrow=none;startFill=0;endArrow=none;endFill=0;" parent="1" source="155" edge="1">
          <mxGeometry relative="1" as="geometry">
            <mxPoint x="289.90697674418607" y="188" as="targetPoint" />
          </mxGeometry>
        </mxCell>
        <mxCell id="155" value="" style="whiteSpace=wrap;html=1;aspect=fixed;fillColor=#fa6800;strokeColor=#C73500;fontColor=#000000;" parent="1" vertex="1">
          <mxGeometry x="280" y="208" width="20" height="20" as="geometry" />
        </mxCell>
        <mxCell id="174" style="edgeStyle=none;html=1;exitX=0.5;exitY=0;exitDx=0;exitDy=0;strokeColor=#C73500;startArrow=none;startFill=0;endArrow=none;endFill=0;" parent="1" source="156" edge="1">
          <mxGeometry relative="1" as="geometry">
            <mxPoint x="329.90697674418607" y="188" as="targetPoint" />
          </mxGeometry>
        </mxCell>
        <mxCell id="178" style="edgeStyle=none;html=1;exitX=1;exitY=0.5;exitDx=0;exitDy=0;entryX=0;entryY=0.5;entryDx=0;entryDy=0;strokeColor=#314354;startArrow=none;startFill=0;endArrow=none;endFill=0;fillColor=#647687;" parent="1" source="156" target="150" edge="1">
          <mxGeometry relative="1" as="geometry" />
        </mxCell>
        <mxCell id="156" value="" style="whiteSpace=wrap;html=1;aspect=fixed;fillColor=#fa6800;strokeColor=#C73500;fontColor=#000000;" parent="1" vertex="1">
          <mxGeometry x="320" y="208" width="20" height="20" as="geometry" />
        </mxCell>
        <mxCell id="158" value="" style="whiteSpace=wrap;html=1;aspect=fixed;fillColor=#647687;strokeColor=#314354;fontColor=#ffffff;" parent="1" vertex="1">
          <mxGeometry x="360" y="248" width="20" height="20" as="geometry" />
        </mxCell>
        <mxCell id="184" style="edgeStyle=none;html=1;exitX=0.5;exitY=0;exitDx=0;exitDy=0;strokeColor=#C73500;startArrow=classic;startFill=1;endArrow=classic;endFill=1;" parent="1" source="159" edge="1">
          <mxGeometry relative="1" as="geometry">
            <mxPoint x="400" y="418" as="targetPoint" />
            <Array as="points">
              <mxPoint x="210" y="178" />
              <mxPoint x="420" y="178" />
              <mxPoint x="420" y="418" />
            </Array>
          </mxGeometry>
        </mxCell>
        <mxCell id="159" value="" style="whiteSpace=wrap;html=1;aspect=fixed;fillColor=#647687;strokeColor=#314354;fontColor=#ffffff;" parent="1" vertex="1">
          <mxGeometry x="200" y="208" width="20" height="20" as="geometry" />
        </mxCell>
        <mxCell id="176" style="edgeStyle=none;html=1;exitX=1;exitY=0.5;exitDx=0;exitDy=0;entryX=0;entryY=0.5;entryDx=0;entryDy=0;strokeColor=#314354;startArrow=none;startFill=0;endArrow=none;endFill=0;fillColor=#647687;" parent="1" source="160" target="152" edge="1">
          <mxGeometry relative="1" as="geometry" />
        </mxCell>
        <mxCell id="160" value="" style="whiteSpace=wrap;html=1;aspect=fixed;fillColor=#647687;strokeColor=#314354;fontColor=#ffffff;" parent="1" vertex="1">
          <mxGeometry x="200" y="248" width="20" height="20" as="geometry" />
        </mxCell>
        <mxCell id="185" value="&lt;font style=&quot;&quot;&gt;&lt;font color=&quot;#c73500&quot; style=&quot;font-size: 30px;&quot;&gt;...&lt;/font&gt;&lt;br style=&quot;font-size: 14px;&quot;&gt;&lt;/font&gt;" style="text;html=1;align=center;verticalAlign=middle;resizable=0;points=[];autosize=1;strokeColor=none;fillColor=none;fontColor=default;rotation=0;fontStyle=1;fontSize=14;" parent="1" vertex="1">
          <mxGeometry x="243.99999999999977" y="157.99999999999983" width="50" height="50" as="geometry" />
        </mxCell>
        <mxCell id="186" value="&lt;font style=&quot;&quot;&gt;&lt;font color=&quot;#c73500&quot; style=&quot;font-size: 30px;&quot;&gt;...&lt;/font&gt;&lt;br style=&quot;font-size: 14px;&quot;&gt;&lt;/font&gt;" style="text;html=1;align=center;verticalAlign=middle;resizable=0;points=[];autosize=1;strokeColor=none;fillColor=none;fontColor=default;rotation=0;fontStyle=1;fontSize=14;" parent="1" vertex="1">
          <mxGeometry x="284.9999999999998" y="157.99999999999983" width="50" height="50" as="geometry" />
        </mxCell>
        <mxCell id="187" value="&lt;font style=&quot;&quot;&gt;&lt;font color=&quot;#b20000&quot; style=&quot;font-size: 30px;&quot;&gt;...&lt;/font&gt;&lt;br style=&quot;font-size: 14px;&quot;&gt;&lt;/font&gt;" style="text;html=1;align=center;verticalAlign=middle;resizable=0;points=[];autosize=1;strokeColor=none;fillColor=none;fontColor=default;rotation=90;fontStyle=1;fontSize=14;" parent="1" vertex="1">
          <mxGeometry x="129.99999999999977" y="381.9999999999998" width="50" height="50" as="geometry" />
        </mxCell>
        <mxCell id="188" value="&lt;font style=&quot;&quot;&gt;&lt;font color=&quot;#b20000&quot; style=&quot;font-size: 30px;&quot;&gt;...&lt;/font&gt;&lt;br style=&quot;font-size: 14px;&quot;&gt;&lt;/font&gt;" style="text;html=1;align=center;verticalAlign=middle;resizable=0;points=[];autosize=1;strokeColor=none;fillColor=none;fontColor=default;rotation=90;fontStyle=1;fontSize=14;" parent="1" vertex="1">
          <mxGeometry x="129.99999999999977" y="421.9999999999998" width="50" height="50" as="geometry" />
        </mxCell>
        <mxCell id="191" style="edgeStyle=none;html=1;exitX=0.5;exitY=0;exitDx=0;exitDy=0;entryX=0.5;entryY=1;entryDx=0;entryDy=0;startArrow=none;startFill=0;endArrow=none;endFill=0;strokeColor=#BD7000;fillColor=#f0a30a;" parent="1" source="193" target="209" edge="1">
          <mxGeometry relative="1" as="geometry" />
        </mxCell>
        <mxCell id="226" style="edgeStyle=none;html=1;exitX=0.5;exitY=1;exitDx=0;exitDy=0;strokeColor=#BD7000;fontSize=30;fontColor=#B20000;startArrow=none;startFill=0;endArrow=none;endFill=0;" parent="1" source="193" edge="1">
          <mxGeometry relative="1" as="geometry">
            <mxPoint x="289.9354838709677" y="667.9999999999999" as="targetPoint" />
          </mxGeometry>
        </mxCell>
        <mxCell id="193" value="" style="whiteSpace=wrap;html=1;aspect=fixed;fillColor=#f0a30a;strokeColor=#BD7000;fontColor=#000000;" parent="1" vertex="1">
          <mxGeometry x="280" y="628" width="20" height="20" as="geometry" />
        </mxCell>
        <mxCell id="194" value="" style="whiteSpace=wrap;html=1;aspect=fixed;fillColor=#647687;strokeColor=#314354;fontColor=#ffffff;" parent="1" vertex="1">
          <mxGeometry x="360" y="588" width="20" height="20" as="geometry" />
        </mxCell>
        <mxCell id="196" style="edgeStyle=none;html=1;exitX=0.5;exitY=0;exitDx=0;exitDy=0;entryX=0.5;entryY=1;entryDx=0;entryDy=0;startArrow=none;startFill=0;endArrow=none;endFill=0;strokeColor=#BD7000;fillColor=#f0a30a;" parent="1" source="198" target="205" edge="1">
          <mxGeometry relative="1" as="geometry" />
        </mxCell>
        <mxCell id="225" style="edgeStyle=none;html=1;exitX=0.5;exitY=1;exitDx=0;exitDy=0;strokeColor=#BD7000;fontSize=30;fontColor=#B20000;startArrow=none;startFill=0;endArrow=none;endFill=0;" parent="1" source="198" edge="1">
          <mxGeometry relative="1" as="geometry">
            <mxPoint x="249.9354838709677" y="667.9999999999999" as="targetPoint" />
          </mxGeometry>
        </mxCell>
        <mxCell id="198" value="" style="whiteSpace=wrap;html=1;aspect=fixed;fillColor=#f0a30a;strokeColor=#BD7000;fontColor=#000000;" parent="1" vertex="1">
          <mxGeometry x="240" y="628" width="20" height="20" as="geometry" />
        </mxCell>
        <mxCell id="199" style="edgeStyle=none;html=1;exitX=0.5;exitY=0;exitDx=0;exitDy=0;entryX=0.5;entryY=1;entryDx=0;entryDy=0;startArrow=none;startFill=0;endArrow=none;endFill=0;strokeColor=#BD7000;fillColor=#f0a30a;" parent="1" source="201" target="213" edge="1">
          <mxGeometry relative="1" as="geometry" />
        </mxCell>
        <mxCell id="200" style="edgeStyle=none;html=1;exitX=1;exitY=0.5;exitDx=0;exitDy=0;entryX=0;entryY=0.5;entryDx=0;entryDy=0;strokeColor=#314354;startArrow=none;startFill=0;endArrow=none;endFill=0;fillColor=#647687;" parent="1" source="201" target="214" edge="1">
          <mxGeometry relative="1" as="geometry" />
        </mxCell>
        <mxCell id="227" style="edgeStyle=none;html=1;exitX=0.5;exitY=1;exitDx=0;exitDy=0;strokeColor=#BD7000;fontSize=30;fontColor=#B20000;startArrow=none;startFill=0;endArrow=none;endFill=0;" parent="1" source="201" edge="1">
          <mxGeometry relative="1" as="geometry">
            <mxPoint x="329.9354838709677" y="667.9999999999999" as="targetPoint" />
          </mxGeometry>
        </mxCell>
        <mxCell id="201" value="" style="whiteSpace=wrap;html=1;aspect=fixed;fillColor=#f0a30a;strokeColor=#BD7000;fontColor=#000000;" parent="1" vertex="1">
          <mxGeometry x="320" y="628" width="20" height="20" as="geometry" />
        </mxCell>
        <mxCell id="204" style="edgeStyle=none;html=1;entryX=1;entryY=0.5;entryDx=0;entryDy=0;strokeColor=#314354;startArrow=none;startFill=0;endArrow=none;endFill=0;fillColor=#647687;" parent="1" source="205" target="215" edge="1">
          <mxGeometry relative="1" as="geometry" />
        </mxCell>
        <mxCell id="205" value="" style="whiteSpace=wrap;html=1;aspect=fixed;fillColor=#f0a30a;strokeColor=#BD7000;fontColor=#000000;" parent="1" vertex="1">
          <mxGeometry x="240" y="588" width="20" height="20" as="geometry" />
        </mxCell>
        <mxCell id="219" style="edgeStyle=none;html=1;exitX=0.5;exitY=0;exitDx=0;exitDy=0;entryX=0.5;entryY=1;entryDx=0;entryDy=0;strokeColor=#314354;fontSize=30;fontColor=#B20000;startArrow=none;startFill=0;endArrow=none;endFill=0;fillColor=#647687;" parent="1" source="209" target="218" edge="1">
          <mxGeometry relative="1" as="geometry" />
        </mxCell>
        <mxCell id="209" value="" style="whiteSpace=wrap;html=1;aspect=fixed;fillColor=#f0a30a;strokeColor=#BD7000;fontColor=#000000;" parent="1" vertex="1">
          <mxGeometry x="280" y="588" width="20" height="20" as="geometry" />
        </mxCell>
        <mxCell id="212" style="edgeStyle=none;html=1;exitX=1;exitY=0.5;exitDx=0;exitDy=0;entryX=0;entryY=0.5;entryDx=0;entryDy=0;strokeColor=#314354;startArrow=none;startFill=0;endArrow=none;endFill=0;fillColor=#647687;" parent="1" source="213" target="194" edge="1">
          <mxGeometry relative="1" as="geometry" />
        </mxCell>
        <mxCell id="213" value="" style="whiteSpace=wrap;html=1;aspect=fixed;fillColor=#f0a30a;strokeColor=#BD7000;fontColor=#000000;" parent="1" vertex="1">
          <mxGeometry x="320" y="588" width="20" height="20" as="geometry" />
        </mxCell>
        <mxCell id="223" style="edgeStyle=none;html=1;exitX=1;exitY=0.5;exitDx=0;exitDy=0;entryX=1;entryY=1;entryDx=0;entryDy=0;strokeColor=#BD7000;fontSize=30;fontColor=#B20000;startArrow=classic;startFill=1;endArrow=classic;endFill=1;" parent="1" source="214" target="133" edge="1">
          <mxGeometry relative="1" as="geometry">
            <Array as="points">
              <mxPoint x="400" y="638" />
            </Array>
          </mxGeometry>
        </mxCell>
        <mxCell id="214" value="" style="whiteSpace=wrap;html=1;aspect=fixed;fillColor=#647687;strokeColor=#314354;fontColor=#ffffff;" parent="1" vertex="1">
          <mxGeometry x="360" y="628" width="20" height="20" as="geometry" />
        </mxCell>
        <mxCell id="221" style="edgeStyle=none;html=1;exitX=0.5;exitY=0;exitDx=0;exitDy=0;entryX=0;entryY=1;entryDx=0;entryDy=0;strokeColor=#BD7000;fontSize=30;fontColor=#B20000;startArrow=classic;startFill=1;endArrow=classic;endFill=1;" parent="1" source="215" target="92" edge="1">
          <mxGeometry relative="1" as="geometry">
            <Array as="points">
              <mxPoint x="210" y="568" />
              <mxPoint x="250" y="568" />
              <mxPoint x="250" y="498" />
              <mxPoint x="280" y="498" />
            </Array>
          </mxGeometry>
        </mxCell>
        <mxCell id="215" value="" style="whiteSpace=wrap;html=1;aspect=fixed;fillColor=#647687;strokeColor=#314354;fontColor=#ffffff;" parent="1" vertex="1">
          <mxGeometry x="200" y="588" width="20" height="20" as="geometry" />
        </mxCell>
        <mxCell id="216" style="edgeStyle=none;html=1;exitX=1;exitY=0.5;exitDx=0;exitDy=0;entryX=0;entryY=0.5;entryDx=0;entryDy=0;strokeColor=#314354;startArrow=none;startFill=0;endArrow=none;endFill=0;fillColor=#647687;" parent="1" source="217" target="198" edge="1">
          <mxGeometry relative="1" as="geometry" />
        </mxCell>
        <mxCell id="224" style="edgeStyle=none;html=1;exitX=0.5;exitY=1;exitDx=0;exitDy=0;entryX=1;entryY=1;entryDx=0;entryDy=0;strokeColor=#BD7000;fontSize=30;fontColor=#B20000;startArrow=classic;startFill=1;endArrow=classic;endFill=1;" parent="1" source="217" target="133" edge="1">
          <mxGeometry relative="1" as="geometry">
            <Array as="points">
              <mxPoint x="210" y="678" />
              <mxPoint x="420" y="678" />
              <mxPoint x="420" y="438" />
            </Array>
          </mxGeometry>
        </mxCell>
        <mxCell id="217" value="" style="whiteSpace=wrap;html=1;aspect=fixed;fillColor=#647687;strokeColor=#314354;fontColor=#ffffff;" parent="1" vertex="1">
          <mxGeometry x="200" y="628" width="20" height="20" as="geometry" />
        </mxCell>
        <mxCell id="220" style="edgeStyle=none;html=1;exitX=0.5;exitY=0;exitDx=0;exitDy=0;entryX=0.5;entryY=1;entryDx=0;entryDy=0;strokeColor=#BD7000;fontSize=30;fontColor=#B20000;startArrow=classic;startFill=1;endArrow=classic;endFill=1;" parent="1" source="218" target="92" edge="1">
          <mxGeometry relative="1" as="geometry" />
        </mxCell>
        <mxCell id="218" value="" style="whiteSpace=wrap;html=1;aspect=fixed;fillColor=#647687;strokeColor=#314354;fontColor=#ffffff;" parent="1" vertex="1">
          <mxGeometry x="280" y="548" width="20" height="20" as="geometry" />
        </mxCell>
        <mxCell id="233" style="edgeStyle=none;html=1;exitX=0;exitY=0.5;exitDx=0;exitDy=0;entryX=1;entryY=0.5;entryDx=0;entryDy=0;strokeColor=#6F0000;fontSize=30;fontColor=#BD7000;startArrow=classic;startFill=1;endArrow=classic;endFill=1;fillColor=#a20025;strokeWidth=2;" parent="1" source="230" target="133" edge="1">
          <mxGeometry relative="1" as="geometry">
            <Array as="points">
              <mxPoint x="460" y="578" />
              <mxPoint x="460" y="428" />
            </Array>
          </mxGeometry>
        </mxCell>
        <mxCell id="230" value="" style="whiteSpace=wrap;html=1;aspect=fixed;fillColor=#76608a;strokeColor=#432D57;fontColor=#ffffff;" parent="1" vertex="1">
          <mxGeometry x="520" y="558" width="40" height="40" as="geometry" />
        </mxCell>
        <mxCell id="244" style="edgeStyle=none;html=1;exitX=1;exitY=0.5;exitDx=0;exitDy=0;entryX=0;entryY=0.5;entryDx=0;entryDy=0;endArrow=none;endFill=0;fillColor=#1ba1e2;strokeColor=#006EAF;" parent="1" source="246" target="256" edge="1">
          <mxGeometry relative="1" as="geometry" />
        </mxCell>
        <mxCell id="245" style="edgeStyle=none;html=1;exitX=1;exitY=0;exitDx=0;exitDy=0;entryX=0;entryY=1;entryDx=0;entryDy=0;endArrow=none;endFill=0;fillColor=#1ba1e2;strokeColor=#006EAF;" parent="1" source="246" target="250" edge="1">
          <mxGeometry relative="1" as="geometry" />
        </mxCell>
        <mxCell id="246" value="" style="whiteSpace=wrap;html=1;aspect=fixed;fillColor=#1ba1e2;strokeColor=#006EAF;fontColor=#ffffff;" parent="1" vertex="1">
          <mxGeometry x="490" y="418" width="20" height="20" as="geometry" />
        </mxCell>
        <mxCell id="247" style="edgeStyle=none;html=1;exitX=0;exitY=1;exitDx=0;exitDy=0;entryX=1;entryY=0;entryDx=0;entryDy=0;endArrow=none;endFill=0;fillColor=#1ba1e2;strokeColor=#006EAF;" parent="1" source="248" target="252" edge="1">
          <mxGeometry relative="1" as="geometry" />
        </mxCell>
        <mxCell id="266" style="edgeStyle=none;html=1;exitX=1;exitY=0.5;exitDx=0;exitDy=0;strokeColor=#006EAF;fontSize=30;fontColor=#990000;startArrow=none;startFill=0;endArrow=none;endFill=0;fillColor=#1ba1e2;dashed=1;" parent="1" source="248" edge="1">
          <mxGeometry relative="1" as="geometry">
            <mxPoint x="620" y="428" as="targetPoint" />
          </mxGeometry>
        </mxCell>
        <mxCell id="294" style="edgeStyle=none;html=1;exitX=1;exitY=0;exitDx=0;exitDy=0;entryX=0;entryY=1;entryDx=0;entryDy=0;dashed=1;strokeColor=#006EAF;fontSize=30;fontColor=#990000;startArrow=none;startFill=0;endArrow=none;endFill=0;fillColor=#1ba1e2;" parent="1" source="248" target="288" edge="1">
          <mxGeometry relative="1" as="geometry">
            <mxPoint x="640" y="368" as="targetPoint" />
          </mxGeometry>
        </mxCell>
        <mxCell id="248" value="" style="whiteSpace=wrap;html=1;aspect=fixed;fillColor=#1ba1e2;strokeColor=#006EAF;fontColor=#ffffff;" parent="1" vertex="1">
          <mxGeometry x="570" y="418" width="20" height="20" as="geometry" />
        </mxCell>
        <mxCell id="249" style="edgeStyle=none;html=1;exitX=1;exitY=1;exitDx=0;exitDy=0;entryX=0;entryY=0;entryDx=0;entryDy=0;endArrow=none;endFill=0;fillColor=#1ba1e2;strokeColor=#006EAF;" parent="1" source="250" target="248" edge="1">
          <mxGeometry relative="1" as="geometry" />
        </mxCell>
        <mxCell id="265" style="edgeStyle=none;html=1;exitX=0.5;exitY=0;exitDx=0;exitDy=0;strokeColor=#6F0000;fontSize=30;fontColor=#990000;startArrow=classic;startFill=1;endArrow=classic;endFill=1;fillColor=#a20025;entryX=0.5;entryY=1;entryDx=0;entryDy=0;strokeWidth=2;" parent="1" source="250" target="274" edge="1">
          <mxGeometry relative="1" as="geometry">
            <mxPoint x="555" y="340.25" as="targetPoint" />
            <mxPoint x="565" y="360.25" as="sourcePoint" />
          </mxGeometry>
        </mxCell>
        <mxCell id="293" style="edgeStyle=none;html=1;exitX=1;exitY=0;exitDx=0;exitDy=0;entryX=0;entryY=1;entryDx=0;entryDy=0;strokeColor=#006EAF;fontSize=30;fontColor=#990000;startArrow=none;startFill=0;endArrow=none;endFill=0;fillColor=#1ba1e2;dashed=1;" parent="1" source="250" target="282" edge="1">
          <mxGeometry relative="1" as="geometry">
            <mxPoint x="575" y="360.25" as="sourcePoint" />
          </mxGeometry>
        </mxCell>
        <mxCell id="250" value="" style="whiteSpace=wrap;html=1;aspect=fixed;fillColor=#1ba1e2;strokeColor=#006EAF;fontColor=#ffffff;" parent="1" vertex="1">
          <mxGeometry x="530" y="378" width="20" height="20" as="geometry" />
        </mxCell>
        <mxCell id="251" style="edgeStyle=none;html=1;exitX=0;exitY=0;exitDx=0;exitDy=0;entryX=1;entryY=1;entryDx=0;entryDy=0;endArrow=none;endFill=0;fillColor=#1ba1e2;strokeColor=#006EAF;" parent="1" source="252" target="246" edge="1">
          <mxGeometry relative="1" as="geometry" />
        </mxCell>
        <mxCell id="261" style="edgeStyle=none;html=1;exitX=0.5;exitY=1;exitDx=0;exitDy=0;entryX=0.5;entryY=0;entryDx=0;entryDy=0;strokeColor=#6F0000;fontSize=30;fontColor=#990000;startArrow=classic;startFill=1;endArrow=classic;endFill=1;fillColor=#a20025;strokeWidth=2;" parent="1" source="252" target="230" edge="1">
          <mxGeometry relative="1" as="geometry" />
        </mxCell>
        <mxCell id="252" value="" style="whiteSpace=wrap;html=1;aspect=fixed;fillColor=#1ba1e2;strokeColor=#006EAF;fontColor=#ffffff;" parent="1" vertex="1">
          <mxGeometry x="530" y="458" width="20" height="20" as="geometry" />
        </mxCell>
        <mxCell id="253" style="edgeStyle=none;html=1;exitX=1;exitY=0.5;exitDx=0;exitDy=0;entryX=-0.052;entryY=0.506;entryDx=0;entryDy=0;entryPerimeter=0;endArrow=none;endFill=0;fillColor=#1ba1e2;strokeColor=#006EAF;" parent="1" source="256" target="248" edge="1">
          <mxGeometry relative="1" as="geometry" />
        </mxCell>
        <mxCell id="254" style="edgeStyle=none;html=1;exitX=0.5;exitY=0;exitDx=0;exitDy=0;entryX=0.5;entryY=1;entryDx=0;entryDy=0;endArrow=none;endFill=0;fillColor=#1ba1e2;strokeColor=#006EAF;" parent="1" source="256" target="250" edge="1">
          <mxGeometry relative="1" as="geometry" />
        </mxCell>
        <mxCell id="255" style="edgeStyle=none;html=1;exitX=0.5;exitY=1;exitDx=0;exitDy=0;entryX=0.5;entryY=0;entryDx=0;entryDy=0;endArrow=none;endFill=0;fillColor=#1ba1e2;strokeColor=#006EAF;" parent="1" source="256" target="252" edge="1">
          <mxGeometry relative="1" as="geometry" />
        </mxCell>
        <mxCell id="295" style="edgeStyle=none;html=1;exitX=1;exitY=0;exitDx=0;exitDy=0;entryX=0;entryY=1;entryDx=0;entryDy=0;dashed=1;strokeColor=#006EAF;fontSize=30;fontColor=#990000;startArrow=none;startFill=0;endArrow=none;endFill=0;fillColor=#1ba1e2;" parent="1" source="256" target="292" edge="1">
          <mxGeometry relative="1" as="geometry" />
        </mxCell>
        <mxCell id="256" value="" style="whiteSpace=wrap;html=1;aspect=fixed;fillColor=#1ba1e2;strokeColor=#006EAF;fontColor=#ffffff;" parent="1" vertex="1">
          <mxGeometry x="530" y="418" width="20" height="20" as="geometry" />
        </mxCell>
        <mxCell id="268" value="" style="whiteSpace=wrap;html=1;aspect=fixed;fillColor=#a20025;strokeColor=#6F0000;fontColor=#ffffff;" parent="1" vertex="1">
          <mxGeometry x="530" y="188" width="20" height="20" as="geometry" />
        </mxCell>
        <mxCell id="273" style="edgeStyle=none;html=1;exitX=0.5;exitY=0;exitDx=0;exitDy=0;entryX=0.5;entryY=1;entryDx=0;entryDy=0;strokeColor=#6F0000;fontSize=30;fontColor=#990000;startArrow=classic;startFill=1;endArrow=classic;endFill=1;fillColor=#a20025;" parent="1" source="269" target="270" edge="1">
          <mxGeometry relative="1" as="geometry" />
        </mxCell>
        <mxCell id="277" style="edgeStyle=none;html=1;exitX=0.5;exitY=0;exitDx=0;exitDy=0;entryX=0.5;entryY=1;entryDx=0;entryDy=0;strokeColor=#6F0000;fontSize=30;fontColor=#990000;startArrow=classic;startFill=1;endArrow=classic;endFill=1;fillColor=#a20025;" parent="1" source="269" target="268" edge="1">
          <mxGeometry relative="1" as="geometry" />
        </mxCell>
        <mxCell id="269" value="" style="whiteSpace=wrap;html=1;aspect=fixed;fillColor=#a20025;strokeColor=#6F0000;fontColor=#ffffff;" parent="1" vertex="1">
          <mxGeometry x="530" y="238" width="20" height="20" as="geometry" />
        </mxCell>
        <mxCell id="270" value="" style="whiteSpace=wrap;html=1;aspect=fixed;fillColor=#a20025;strokeColor=#6F0000;fontColor=#ffffff;" parent="1" vertex="1">
          <mxGeometry x="580" y="188" width="20" height="20" as="geometry" />
        </mxCell>
        <mxCell id="272" style="edgeStyle=none;html=1;exitX=0.5;exitY=1;exitDx=0;exitDy=0;entryX=0.5;entryY=0;entryDx=0;entryDy=0;strokeColor=#6F0000;fontSize=30;fontColor=#990000;startArrow=classic;startFill=1;endArrow=classic;endFill=1;fillColor=#a20025;" parent="1" source="271" target="269" edge="1">
          <mxGeometry relative="1" as="geometry" />
        </mxCell>
        <mxCell id="271" value="" style="whiteSpace=wrap;html=1;aspect=fixed;fillColor=#a20025;strokeColor=#6F0000;fontColor=#ffffff;" parent="1" vertex="1">
          <mxGeometry x="480" y="188" width="20" height="20" as="geometry" />
        </mxCell>
        <mxCell id="275" style="edgeStyle=none;html=1;exitX=0.5;exitY=0;exitDx=0;exitDy=0;entryX=0.5;entryY=1;entryDx=0;entryDy=0;strokeColor=#432D57;fontSize=30;fontColor=#990000;startArrow=none;startFill=0;endArrow=none;endFill=0;fillColor=#76608a;" parent="1" source="274" target="269" edge="1">
          <mxGeometry relative="1" as="geometry" />
        </mxCell>
        <mxCell id="297" style="edgeStyle=none;html=1;exitX=1;exitY=0.5;exitDx=0;exitDy=0;entryX=0;entryY=0.5;entryDx=0;entryDy=0;strokeColor=#6F0000;fontSize=30;fontColor=#990000;startArrow=classic;startFill=1;endArrow=classic;endFill=1;fillColor=#a20025;strokeWidth=2;" parent="1" source="274" target="282" edge="1">
          <mxGeometry relative="1" as="geometry">
            <mxPoint x="612.25" y="275.75" as="targetPoint" />
          </mxGeometry>
        </mxCell>
        <mxCell id="274" value="" style="whiteSpace=wrap;html=1;aspect=fixed;fillColor=#76608a;strokeColor=#432D57;fontColor=#ffffff;" parent="1" vertex="1">
          <mxGeometry x="530" y="278" width="20" height="20" as="geometry" />
        </mxCell>
        <mxCell id="278" value="&lt;font style=&quot;&quot;&gt;&lt;font color=&quot;#990000&quot; style=&quot;font-size: 30px;&quot;&gt;...&lt;/font&gt;&lt;br style=&quot;font-size: 14px;&quot;&gt;&lt;/font&gt;" style="text;html=1;align=center;verticalAlign=middle;resizable=0;points=[];autosize=1;strokeColor=none;fillColor=none;fontColor=default;rotation=0;fontStyle=1;fontSize=14;" parent="1" vertex="1">
          <mxGeometry x="489.9999999999998" y="157.99999999999977" width="50" height="50" as="geometry" />
        </mxCell>
        <mxCell id="279" value="&lt;font style=&quot;&quot;&gt;&lt;font color=&quot;#990000&quot; style=&quot;font-size: 30px;&quot;&gt;...&lt;/font&gt;&lt;br style=&quot;font-size: 14px;&quot;&gt;&lt;/font&gt;" style="text;html=1;align=center;verticalAlign=middle;resizable=0;points=[];autosize=1;strokeColor=none;fillColor=none;fontColor=default;rotation=0;fontStyle=1;fontSize=14;" parent="1" vertex="1">
          <mxGeometry x="539.9999999999998" y="157.99999999999977" width="50" height="50" as="geometry" />
        </mxCell>
        <mxCell id="280" style="edgeStyle=none;html=1;exitX=1;exitY=0.5;exitDx=0;exitDy=0;entryX=0;entryY=0.5;entryDx=0;entryDy=0;endArrow=none;endFill=0;fillColor=#d5e8d4;gradientColor=#97d077;strokeColor=#82b366;" parent="1" source="282" target="292" edge="1">
          <mxGeometry relative="1" as="geometry" />
        </mxCell>
        <mxCell id="281" style="edgeStyle=none;html=1;exitX=1;exitY=0;exitDx=0;exitDy=0;entryX=0;entryY=1;entryDx=0;entryDy=0;endArrow=none;endFill=0;fillColor=#d5e8d4;gradientColor=#97d077;strokeColor=#82b366;" parent="1" source="282" target="286" edge="1">
          <mxGeometry relative="1" as="geometry" />
        </mxCell>
        <mxCell id="282" value="" style="whiteSpace=wrap;html=1;aspect=fixed;fillColor=#d5e8d4;strokeColor=#82b366;gradientColor=#97d077;" parent="1" vertex="1">
          <mxGeometry x="640" y="278" width="20" height="20" as="geometry" />
        </mxCell>
        <mxCell id="283" style="edgeStyle=none;html=1;exitX=0;exitY=1;exitDx=0;exitDy=0;entryX=1;entryY=0;entryDx=0;entryDy=0;endArrow=none;endFill=0;fillColor=#d5e8d4;gradientColor=#97d077;strokeColor=#82b366;" parent="1" source="284" target="288" edge="1">
          <mxGeometry relative="1" as="geometry" />
        </mxCell>
        <mxCell id="313" style="edgeStyle=none;html=1;exitX=1;exitY=0.5;exitDx=0;exitDy=0;entryX=0;entryY=0.5;entryDx=0;entryDy=0;strokeColor=#B20000;fontSize=30;fontColor=#990000;startArrow=classic;startFill=1;endArrow=classic;endFill=1;fillColor=#e51400;" parent="1" source="284" target="302" edge="1">
          <mxGeometry relative="1" as="geometry" />
        </mxCell>
        <mxCell id="284" value="" style="whiteSpace=wrap;html=1;aspect=fixed;fillColor=#d5e8d4;strokeColor=#82b366;gradientColor=#97d077;" parent="1" vertex="1">
          <mxGeometry x="720" y="278" width="20" height="20" as="geometry" />
        </mxCell>
        <mxCell id="285" style="edgeStyle=none;html=1;exitX=1;exitY=1;exitDx=0;exitDy=0;entryX=0;entryY=0;entryDx=0;entryDy=0;endArrow=none;endFill=0;fillColor=#d5e8d4;gradientColor=#97d077;strokeColor=#82b366;" parent="1" source="286" target="284" edge="1">
          <mxGeometry relative="1" as="geometry" />
        </mxCell>
        <mxCell id="286" value="" style="whiteSpace=wrap;html=1;aspect=fixed;fillColor=#d5e8d4;strokeColor=#82b366;gradientColor=#97d077;" parent="1" vertex="1">
          <mxGeometry x="680" y="243" width="20" height="20" as="geometry" />
        </mxCell>
        <mxCell id="287" style="edgeStyle=none;html=1;exitX=0;exitY=0;exitDx=0;exitDy=0;entryX=1;entryY=1;entryDx=0;entryDy=0;endArrow=none;endFill=0;fillColor=#d5e8d4;gradientColor=#97d077;strokeColor=#82b366;" parent="1" source="288" target="282" edge="1">
          <mxGeometry relative="1" as="geometry" />
        </mxCell>
        <mxCell id="288" value="" style="whiteSpace=wrap;html=1;aspect=fixed;fillColor=#d5e8d4;strokeColor=#82b366;gradientColor=#97d077;" parent="1" vertex="1">
          <mxGeometry x="680" y="318" width="20" height="20" as="geometry" />
        </mxCell>
        <mxCell id="289" style="edgeStyle=none;html=1;exitX=1;exitY=0.5;exitDx=0;exitDy=0;entryX=0;entryY=0.5;entryDx=0;entryDy=0;endArrow=none;endFill=0;fillColor=#d5e8d4;gradientColor=#97d077;strokeColor=#82b366;startArrow=none;" parent="1" source="292" target="284" edge="1">
          <mxGeometry relative="1" as="geometry" />
        </mxCell>
        <mxCell id="290" style="edgeStyle=none;html=1;exitX=0.5;exitY=0;exitDx=0;exitDy=0;entryX=0.5;entryY=1;entryDx=0;entryDy=0;endArrow=none;endFill=0;fillColor=#d5e8d4;gradientColor=#97d077;strokeColor=#82b366;" parent="1" source="292" target="286" edge="1">
          <mxGeometry relative="1" as="geometry" />
        </mxCell>
        <mxCell id="291" style="edgeStyle=none;html=1;exitX=0.5;exitY=1;exitDx=0;exitDy=0;entryX=0.5;entryY=0;entryDx=0;entryDy=0;endArrow=none;endFill=0;fillColor=#d5e8d4;gradientColor=#97d077;strokeColor=#82b366;" parent="1" source="292" target="288" edge="1">
          <mxGeometry relative="1" as="geometry" />
        </mxCell>
        <mxCell id="292" value="" style="whiteSpace=wrap;html=1;aspect=fixed;fillColor=#d5e8d4;strokeColor=#82b366;gradientColor=#97d077;" parent="1" vertex="1">
          <mxGeometry x="680" y="278" width="20" height="20" as="geometry" />
        </mxCell>
        <mxCell id="312" style="edgeStyle=none;html=1;exitX=0.5;exitY=1;exitDx=0;exitDy=0;entryX=0.5;entryY=0;entryDx=0;entryDy=0;strokeColor=#C73500;fontSize=30;fontColor=#990000;startArrow=classic;startFill=1;endArrow=classic;endFill=1;fillColor=#fa6800;" parent="1" source="301" target="286" edge="1">
          <mxGeometry relative="1" as="geometry" />
        </mxCell>
        <mxCell id="316" style="edgeStyle=none;html=1;exitX=0.5;exitY=0;exitDx=0;exitDy=0;entryX=0.5;entryY=1;entryDx=0;entryDy=0;strokeColor=#314354;fontSize=30;fontColor=#990000;startArrow=none;startFill=0;endArrow=none;endFill=0;fillColor=#647687;" parent="1" source="301" target="307" edge="1">
          <mxGeometry relative="1" as="geometry" />
        </mxCell>
        <mxCell id="301" value="" style="whiteSpace=wrap;html=1;aspect=fixed;fillColor=#647687;strokeColor=#314354;fontColor=#ffffff;" parent="1" vertex="1">
          <mxGeometry x="680" y="198" width="20" height="20" as="geometry" />
        </mxCell>
        <mxCell id="314" style="edgeStyle=none;html=1;exitX=1;exitY=0.5;exitDx=0;exitDy=0;entryX=0;entryY=0.5;entryDx=0;entryDy=0;strokeColor=#314354;fontSize=30;fontColor=#990000;startArrow=none;startFill=0;endArrow=none;endFill=0;fillColor=#647687;" parent="1" source="302" target="309" edge="1">
          <mxGeometry relative="1" as="geometry" />
        </mxCell>
        <mxCell id="302" value="" style="whiteSpace=wrap;html=1;aspect=fixed;fillColor=#647687;strokeColor=#314354;fontColor=#ffffff;" parent="1" vertex="1">
          <mxGeometry x="770" y="278" width="20" height="20" as="geometry" />
        </mxCell>
        <mxCell id="311" style="edgeStyle=none;html=1;exitX=0;exitY=0;exitDx=0;exitDy=0;strokeColor=#BD7000;fontSize=30;fontColor=#990000;startArrow=classic;startFill=1;endArrow=classic;endFill=1;entryX=1;entryY=1;entryDx=0;entryDy=0;" parent="1" source="303" target="284" edge="1">
          <mxGeometry relative="1" as="geometry">
            <mxPoint x="700" y="338" as="targetPoint" />
          </mxGeometry>
        </mxCell>
        <mxCell id="303" value="" style="whiteSpace=wrap;html=1;aspect=fixed;fillColor=#647687;strokeColor=#314354;fontColor=#ffffff;" parent="1" vertex="1">
          <mxGeometry x="760" y="318" width="20" height="20" as="geometry" />
        </mxCell>
        <mxCell id="307" value="" style="whiteSpace=wrap;html=1;aspect=fixed;fillColor=#fa6800;strokeColor=#C73500;fontColor=#000000;" parent="1" vertex="1">
          <mxGeometry x="680" y="158" width="20" height="20" as="geometry" />
        </mxCell>
        <mxCell id="309" value="" style="whiteSpace=wrap;html=1;aspect=fixed;fillColor=#e51400;strokeColor=#B20000;fontColor=#ffffff;" parent="1" vertex="1">
          <mxGeometry x="810" y="278" width="20" height="20" as="geometry" />
        </mxCell>
        <mxCell id="315" style="edgeStyle=none;html=1;exitX=0;exitY=0.5;exitDx=0;exitDy=0;entryX=1;entryY=0.5;entryDx=0;entryDy=0;strokeColor=#314354;fontSize=30;fontColor=#990000;startArrow=none;startFill=0;endArrow=none;endFill=0;fillColor=#647687;" parent="1" source="310" target="303" edge="1">
          <mxGeometry relative="1" as="geometry" />
        </mxCell>
        <mxCell id="310" value="" style="whiteSpace=wrap;html=1;aspect=fixed;fillColor=#f0a30a;strokeColor=#BD7000;fontColor=#000000;" parent="1" vertex="1">
          <mxGeometry x="800" y="318" width="20" height="20" as="geometry" />
        </mxCell>
        <mxCell id="318" style="edgeStyle=none;html=1;exitX=1;exitY=0.5;exitDx=0;exitDy=0;entryX=0;entryY=0.5;entryDx=0;entryDy=0;endArrow=none;endFill=0;fillColor=#a20025;strokeColor=#6F0000;" parent="1" source="321" target="332" edge="1">
          <mxGeometry relative="1" as="geometry" />
        </mxCell>
        <mxCell id="319" style="edgeStyle=none;html=1;exitX=1;exitY=0;exitDx=0;exitDy=0;entryX=0;entryY=1;entryDx=0;entryDy=0;endArrow=none;endFill=0;fillColor=#a20025;strokeColor=#6F0000;" parent="1" source="321" target="326" edge="1">
          <mxGeometry relative="1" as="geometry" />
        </mxCell>
        <mxCell id="333" style="edgeStyle=none;html=1;exitX=0;exitY=0.5;exitDx=0;exitDy=0;strokeColor=#432D57;strokeWidth=2;fontSize=30;fontColor=#990000;startArrow=none;startFill=0;endArrow=none;endFill=0;fillColor=#76608a;entryX=1;entryY=0.5;entryDx=0;entryDy=0;" parent="1" source="321" target="230" edge="1">
          <mxGeometry relative="1" as="geometry">
            <mxPoint x="580" y="598" as="targetPoint" />
          </mxGeometry>
        </mxCell>
        <mxCell id="321" value="" style="whiteSpace=wrap;html=1;aspect=fixed;fillColor=#a20025;strokeColor=#6F0000;fontColor=#ffffff;" parent="1" vertex="1">
          <mxGeometry x="700" y="568" width="20" height="20" as="geometry" />
        </mxCell>
        <mxCell id="322" style="edgeStyle=none;html=1;exitX=0;exitY=1;exitDx=0;exitDy=0;entryX=1;entryY=0;entryDx=0;entryDy=0;endArrow=none;endFill=0;fillColor=#a20025;strokeColor=#6F0000;" parent="1" source="324" target="328" edge="1">
          <mxGeometry relative="1" as="geometry" />
        </mxCell>
        <mxCell id="324" value="" style="whiteSpace=wrap;html=1;aspect=fixed;fillColor=#a20025;strokeColor=#6F0000;fontColor=#ffffff;" parent="1" vertex="1">
          <mxGeometry x="780" y="568" width="20" height="20" as="geometry" />
        </mxCell>
        <mxCell id="325" style="edgeStyle=none;html=1;exitX=1;exitY=1;exitDx=0;exitDy=0;entryX=0;entryY=0;entryDx=0;entryDy=0;endArrow=none;endFill=0;fillColor=#a20025;strokeColor=#6F0000;" parent="1" source="326" target="324" edge="1">
          <mxGeometry relative="1" as="geometry" />
        </mxCell>
        <mxCell id="402" style="edgeStyle=none;html=1;entryX=0;entryY=0.52;entryDx=0;entryDy=0;dashed=1;strokeColor=#6F0000;strokeWidth=1;fontSize=10;fontColor=#C73500;startArrow=none;startFill=0;endArrow=classic;endFill=1;fillColor=#a20025;entryPerimeter=0;" parent="1" source="326" target="395" edge="1">
          <mxGeometry relative="1" as="geometry">
            <Array as="points">
              <mxPoint x="750" y="488" />
            </Array>
          </mxGeometry>
        </mxCell>
        <mxCell id="326" value="" style="whiteSpace=wrap;html=1;aspect=fixed;fillColor=#a20025;strokeColor=#6F0000;fontColor=#ffffff;" parent="1" vertex="1">
          <mxGeometry x="740" y="528" width="20" height="20" as="geometry" />
        </mxCell>
        <mxCell id="327" style="edgeStyle=none;html=1;exitX=0;exitY=0;exitDx=0;exitDy=0;entryX=1;entryY=1;entryDx=0;entryDy=0;endArrow=none;endFill=0;fillColor=#a20025;strokeColor=#6F0000;" parent="1" source="328" target="321" edge="1">
          <mxGeometry relative="1" as="geometry" />
        </mxCell>
        <mxCell id="403" style="edgeStyle=none;html=1;exitX=0.5;exitY=1;exitDx=0;exitDy=0;entryX=0;entryY=1;entryDx=0;entryDy=0;dashed=1;strokeColor=#6F0000;strokeWidth=1;fontSize=10;fontColor=#C73500;startArrow=none;startFill=0;endArrow=classic;endFill=1;fillColor=#a20025;" parent="1" source="328" target="396" edge="1">
          <mxGeometry relative="1" as="geometry">
            <Array as="points">
              <mxPoint x="750" y="678" />
              <mxPoint x="910" y="678" />
            </Array>
          </mxGeometry>
        </mxCell>
        <mxCell id="328" value="" style="whiteSpace=wrap;html=1;aspect=fixed;fillColor=#a20025;strokeColor=#6F0000;fontColor=#ffffff;" parent="1" vertex="1">
          <mxGeometry x="740" y="608" width="20" height="20" as="geometry" />
        </mxCell>
        <mxCell id="329" style="edgeStyle=none;html=1;exitX=1;exitY=0.5;exitDx=0;exitDy=0;entryX=-0.052;entryY=0.506;entryDx=0;entryDy=0;entryPerimeter=0;endArrow=none;endFill=0;fillColor=#a20025;strokeColor=#6F0000;" parent="1" source="332" target="324" edge="1">
          <mxGeometry relative="1" as="geometry" />
        </mxCell>
        <mxCell id="330" style="edgeStyle=none;html=1;exitX=0.5;exitY=0;exitDx=0;exitDy=0;entryX=0.5;entryY=1;entryDx=0;entryDy=0;endArrow=none;endFill=0;fillColor=#a20025;strokeColor=#6F0000;" parent="1" source="332" target="326" edge="1">
          <mxGeometry relative="1" as="geometry" />
        </mxCell>
        <mxCell id="331" style="edgeStyle=none;html=1;exitX=0.5;exitY=1;exitDx=0;exitDy=0;entryX=0.5;entryY=0;entryDx=0;entryDy=0;endArrow=none;endFill=0;fillColor=#a20025;strokeColor=#6F0000;" parent="1" source="332" target="328" edge="1">
          <mxGeometry relative="1" as="geometry" />
        </mxCell>
        <mxCell id="332" value="" style="whiteSpace=wrap;html=1;aspect=fixed;fillColor=#a20025;strokeColor=#6F0000;fontColor=#ffffff;" parent="1" vertex="1">
          <mxGeometry x="740" y="568" width="20" height="20" as="geometry" />
        </mxCell>
        <mxCell id="342" style="edgeStyle=none;html=1;exitX=0;exitY=0.5;exitDx=0;exitDy=0;entryX=1;entryY=0;entryDx=0;entryDy=0;strokeColor=#2D7600;strokeWidth=1;fontSize=30;fontColor=#990000;startArrow=classic;startFill=1;endArrow=none;endFill=0;fillColor=#60a917;" parent="1" source="335" target="332" edge="1">
          <mxGeometry relative="1" as="geometry" />
        </mxCell>
        <mxCell id="392" style="edgeStyle=none;html=1;exitX=1;exitY=0.5;exitDx=0;exitDy=0;entryX=0;entryY=0.5;entryDx=0;entryDy=0;strokeColor=#2D7600;strokeWidth=1;fontSize=20;fontColor=#C73500;startArrow=none;startFill=0;endArrow=classic;endFill=1;fillColor=#60a917;dashed=1;" parent="1" source="335" target="378" edge="1">
          <mxGeometry relative="1" as="geometry" />
        </mxCell>
        <mxCell id="393" style="edgeStyle=none;html=1;exitX=1;exitY=0;exitDx=0;exitDy=0;entryX=0;entryY=0.5;entryDx=0;entryDy=0;strokeColor=#2D7600;strokeWidth=1;fontSize=20;fontColor=#C73500;startArrow=none;startFill=0;endArrow=classic;endFill=1;fillColor=#60a917;dashed=1;" parent="1" source="335" target="360" edge="1">
          <mxGeometry relative="1" as="geometry" />
        </mxCell>
        <mxCell id="394" style="edgeStyle=none;html=1;exitX=1;exitY=1;exitDx=0;exitDy=0;entryX=0;entryY=0.5;entryDx=0;entryDy=0;strokeColor=#2D7600;strokeWidth=1;fontSize=20;fontColor=#C73500;startArrow=none;startFill=0;endArrow=classic;endFill=1;fillColor=#60a917;dashed=1;" parent="1" source="335" target="389" edge="1">
          <mxGeometry relative="1" as="geometry" />
        </mxCell>
        <mxCell id="414" style="edgeStyle=none;html=1;exitX=1;exitY=0.25;exitDx=0;exitDy=0;entryX=0;entryY=0.5;entryDx=0;entryDy=0;dashed=1;strokeColor=#6F0000;strokeWidth=1;fontSize=12;fontColor=#C73500;startArrow=none;startFill=0;endArrow=classic;endFill=1;fillColor=#a20025;" parent="1" source="335" target="346" edge="1">
          <mxGeometry relative="1" as="geometry">
            <Array as="points">
              <mxPoint x="890" y="508" />
              <mxPoint x="890" y="443" />
            </Array>
          </mxGeometry>
        </mxCell>
        <mxCell id="416" style="edgeStyle=none;html=1;entryX=0;entryY=0.5;entryDx=0;entryDy=0;dashed=1;strokeColor=#6F0000;strokeWidth=1;fontSize=12;fontColor=#C73500;startArrow=none;startFill=0;endArrow=classic;endFill=1;fillColor=#a20025;" parent="1" target="349" edge="1">
          <mxGeometry relative="1" as="geometry">
            <mxPoint x="890" y="453" as="sourcePoint" />
          </mxGeometry>
        </mxCell>
        <mxCell id="417" style="edgeStyle=none;html=1;exitX=1;exitY=0.75;exitDx=0;exitDy=0;entryX=0;entryY=0.5;entryDx=0;entryDy=0;dashed=1;strokeColor=#6F0000;strokeWidth=1;fontSize=12;fontColor=#C73500;startArrow=none;startFill=0;endArrow=classic;endFill=1;fillColor=#a20025;" parent="1" source="335" target="379" edge="1">
          <mxGeometry relative="1" as="geometry">
            <Array as="points">
              <mxPoint x="890" y="528" />
              <mxPoint x="890" y="583" />
            </Array>
          </mxGeometry>
        </mxCell>
        <mxCell id="418" style="edgeStyle=none;html=1;exitX=1.003;exitY=0.371;exitDx=0;exitDy=0;entryX=0;entryY=0.5;entryDx=0;entryDy=0;dashed=1;strokeColor=#6F0000;strokeWidth=1;fontSize=12;fontColor=#C73500;startArrow=none;startFill=0;endArrow=classic;endFill=1;exitPerimeter=0;fillColor=#a20025;" parent="1" source="335" target="364" edge="1">
          <mxGeometry relative="1" as="geometry" />
        </mxCell>
        <mxCell id="335" value="" style="whiteSpace=wrap;html=1;aspect=fixed;fillColor=#a20025;strokeColor=#6F0000;fontColor=#ffffff;" parent="1" vertex="1">
          <mxGeometry x="840" y="498" width="40" height="40" as="geometry" />
        </mxCell>
        <mxCell id="340" style="edgeStyle=none;html=1;exitX=0;exitY=0.5;exitDx=0;exitDy=0;entryX=1;entryY=0.5;entryDx=0;entryDy=0;strokeColor=#2D7600;strokeWidth=1;fontSize=30;fontColor=#990000;startArrow=classic;startFill=1;endArrow=none;endFill=0;fillColor=#60a917;" parent="1" source="336" target="324" edge="1">
          <mxGeometry relative="1" as="geometry" />
        </mxCell>
        <mxCell id="390" style="edgeStyle=none;html=1;exitX=0.5;exitY=0;exitDx=0;exitDy=0;entryX=0.5;entryY=1;entryDx=0;entryDy=0;strokeColor=#6F0000;strokeWidth=1;fontSize=20;fontColor=#C73500;startArrow=none;startFill=0;endArrow=classic;endFill=1;fillColor=#a20025;" parent="1" source="336" target="335" edge="1">
          <mxGeometry relative="1" as="geometry" />
        </mxCell>
        <mxCell id="391" style="edgeStyle=none;html=1;exitX=0.5;exitY=1;exitDx=0;exitDy=0;entryX=0.5;entryY=0;entryDx=0;entryDy=0;strokeColor=#6F0000;strokeWidth=1;fontSize=20;fontColor=#C73500;startArrow=none;startFill=0;endArrow=classic;endFill=1;fillColor=#a20025;" parent="1" source="336" target="337" edge="1">
          <mxGeometry relative="1" as="geometry" />
        </mxCell>
        <mxCell id="336" value="" style="whiteSpace=wrap;html=1;aspect=fixed;fillColor=#a20025;strokeColor=#6F0000;fontColor=#ffffff;" parent="1" vertex="1">
          <mxGeometry x="840" y="558" width="40" height="40" as="geometry" />
        </mxCell>
        <mxCell id="344" style="edgeStyle=none;html=1;exitX=0;exitY=0.5;exitDx=0;exitDy=0;entryX=1;entryY=1;entryDx=0;entryDy=0;strokeColor=#2D7600;strokeWidth=1;fontSize=30;fontColor=#990000;startArrow=classic;startFill=1;endArrow=none;endFill=0;fillColor=#60a917;" parent="1" source="337" target="332" edge="1">
          <mxGeometry relative="1" as="geometry" />
        </mxCell>
        <mxCell id="404" style="edgeStyle=none;html=1;exitX=1;exitY=0.5;exitDx=0;exitDy=0;dashed=1;strokeColor=#6F0000;strokeWidth=1;fontSize=10;fontColor=#C73500;startArrow=none;startFill=0;endArrow=classic;endFill=1;entryX=0;entryY=0.5;entryDx=0;entryDy=0;fillColor=#a20025;" parent="1" source="337" target="384" edge="1">
          <mxGeometry relative="1" as="geometry">
            <mxPoint x="900" y="638.2" as="targetPoint" />
            <Array as="points">
              <mxPoint x="900" y="638" />
              <mxPoint x="900" y="593" />
            </Array>
          </mxGeometry>
        </mxCell>
        <mxCell id="337" value="" style="whiteSpace=wrap;html=1;aspect=fixed;fillColor=#a20025;strokeColor=#6F0000;fontColor=#ffffff;" parent="1" vertex="1">
          <mxGeometry x="840" y="618" width="40" height="40" as="geometry" />
        </mxCell>
        <mxCell id="346" value="" style="whiteSpace=wrap;html=1;aspect=fixed;fillColor=#fa6800;strokeColor=#C73500;fontColor=#000000;" parent="1" vertex="1">
          <mxGeometry x="940" y="438" width="10" height="10" as="geometry" />
        </mxCell>
        <mxCell id="349" value="" style="whiteSpace=wrap;html=1;aspect=fixed;fillColor=#d80073;strokeColor=#A50040;fontColor=#ffffff;" parent="1" vertex="1">
          <mxGeometry x="940" y="448" width="10" height="10" as="geometry" />
        </mxCell>
        <mxCell id="350" value="" style="whiteSpace=wrap;html=1;aspect=fixed;fillColor=#fa6800;strokeColor=#C73500;fontColor=#000000;" parent="1" vertex="1">
          <mxGeometry x="950" y="438" width="10" height="10" as="geometry" />
        </mxCell>
        <mxCell id="351" value="" style="whiteSpace=wrap;html=1;aspect=fixed;fillColor=#fa6800;strokeColor=#C73500;fontColor=#000000;" parent="1" vertex="1">
          <mxGeometry x="960" y="438" width="10" height="10" as="geometry" />
        </mxCell>
        <mxCell id="352" value="" style="whiteSpace=wrap;html=1;aspect=fixed;fillColor=#d80073;strokeColor=#A50040;fontColor=#ffffff;" parent="1" vertex="1">
          <mxGeometry x="950" y="448" width="10" height="10" as="geometry" />
        </mxCell>
        <mxCell id="353" value="" style="whiteSpace=wrap;html=1;aspect=fixed;fillColor=#d80073;strokeColor=#A50040;fontColor=#ffffff;" parent="1" vertex="1">
          <mxGeometry x="960" y="448" width="10" height="10" as="geometry" />
        </mxCell>
        <mxCell id="354" value="" style="whiteSpace=wrap;html=1;aspect=fixed;fillColor=#f0a30a;strokeColor=#BD7000;fontColor=#000000;" parent="1" vertex="1">
          <mxGeometry x="950" y="458" width="10" height="10" as="geometry" />
        </mxCell>
        <mxCell id="355" value="" style="whiteSpace=wrap;html=1;aspect=fixed;fillColor=#f0a30a;strokeColor=#BD7000;fontColor=#000000;" parent="1" vertex="1">
          <mxGeometry x="960" y="458" width="10" height="10" as="geometry" />
        </mxCell>
        <mxCell id="406" style="edgeStyle=none;html=1;exitX=0;exitY=0.5;exitDx=0;exitDy=0;dashed=1;strokeColor=#6F0000;strokeWidth=1;fontSize=10;fontColor=#C73500;startArrow=classic;startFill=1;endArrow=none;endFill=0;fillColor=#a20025;" parent="1" source="348" edge="1">
          <mxGeometry relative="1" as="geometry">
            <mxPoint x="900" y="538" as="targetPoint" />
            <Array as="points">
              <mxPoint x="900" y="463" />
            </Array>
          </mxGeometry>
        </mxCell>
        <mxCell id="348" value="" style="whiteSpace=wrap;html=1;aspect=fixed;fillColor=#f0a30a;strokeColor=#BD7000;fontColor=#000000;" parent="1" vertex="1">
          <mxGeometry x="940" y="458" width="10" height="10" as="geometry" />
        </mxCell>
        <mxCell id="356" value="" style="whiteSpace=wrap;html=1;aspect=fixed;fillColor=#fa6800;strokeColor=#C73500;fontColor=#000000;" parent="1" vertex="1">
          <mxGeometry x="970" y="438" width="10" height="10" as="geometry" />
        </mxCell>
        <mxCell id="357" value="" style="whiteSpace=wrap;html=1;aspect=fixed;fillColor=#d80073;strokeColor=#A50040;fontColor=#ffffff;" parent="1" vertex="1">
          <mxGeometry x="970" y="448" width="10" height="10" as="geometry" />
        </mxCell>
        <mxCell id="359" value="" style="whiteSpace=wrap;html=1;aspect=fixed;fillColor=#f0a30a;strokeColor=#BD7000;fontColor=#000000;" parent="1" vertex="1">
          <mxGeometry x="970" y="458" width="10" height="10" as="geometry" />
        </mxCell>
        <mxCell id="361" value="&lt;font style=&quot;&quot;&gt;&lt;font color=&quot;#c73500&quot; style=&quot;font-size: 20px;&quot;&gt;...&lt;/font&gt;&lt;br style=&quot;font-size: 14px;&quot;&gt;&lt;/font&gt;" style="text;html=1;align=center;verticalAlign=middle;resizable=0;points=[];autosize=1;strokeColor=none;fillColor=none;fontColor=default;rotation=0;fontStyle=1;fontSize=14;" parent="1" vertex="1">
          <mxGeometry x="969.9999999999998" y="417.9999999999998" width="40" height="40" as="geometry" />
        </mxCell>
        <mxCell id="362" value="&lt;font style=&quot;&quot;&gt;&lt;font color=&quot;#a50040&quot; style=&quot;font-size: 20px;&quot;&gt;...&lt;/font&gt;&lt;br style=&quot;font-size: 14px;&quot;&gt;&lt;/font&gt;" style="text;html=1;align=center;verticalAlign=middle;resizable=0;points=[];autosize=1;strokeColor=none;fillColor=none;fontColor=default;rotation=0;fontStyle=1;fontSize=14;" parent="1" vertex="1">
          <mxGeometry x="969.9999999999998" y="427.9999999999998" width="40" height="40" as="geometry" />
        </mxCell>
        <mxCell id="363" value="&lt;font style=&quot;&quot;&gt;&lt;font color=&quot;#bd7000&quot; style=&quot;font-size: 20px;&quot;&gt;...&lt;/font&gt;&lt;br style=&quot;font-size: 14px;&quot;&gt;&lt;/font&gt;" style="text;html=1;align=center;verticalAlign=middle;resizable=0;points=[];autosize=1;strokeColor=none;fillColor=none;fontColor=default;rotation=0;fontStyle=1;fontSize=14;" parent="1" vertex="1">
          <mxGeometry x="969.9999999999998" y="437.9999999999998" width="40" height="40" as="geometry" />
        </mxCell>
        <mxCell id="364" value="" style="whiteSpace=wrap;html=1;aspect=fixed;fillColor=#fa6800;strokeColor=#C73500;fontColor=#000000;" parent="1" vertex="1">
          <mxGeometry x="940" y="508" width="10" height="10" as="geometry" />
        </mxCell>
        <mxCell id="366" value="" style="whiteSpace=wrap;html=1;aspect=fixed;fillColor=#fa6800;strokeColor=#C73500;fontColor=#000000;" parent="1" vertex="1">
          <mxGeometry x="950" y="508" width="10" height="10" as="geometry" />
        </mxCell>
        <mxCell id="367" value="" style="whiteSpace=wrap;html=1;aspect=fixed;fillColor=#fa6800;strokeColor=#C73500;fontColor=#000000;" parent="1" vertex="1">
          <mxGeometry x="960" y="508" width="10" height="10" as="geometry" />
        </mxCell>
        <mxCell id="370" value="" style="whiteSpace=wrap;html=1;aspect=fixed;fillColor=#f0a30a;strokeColor=#BD7000;fontColor=#000000;" parent="1" vertex="1">
          <mxGeometry x="950" y="518" width="10" height="10" as="geometry" />
        </mxCell>
        <mxCell id="371" value="" style="whiteSpace=wrap;html=1;aspect=fixed;fillColor=#f0a30a;strokeColor=#BD7000;fontColor=#000000;" parent="1" vertex="1">
          <mxGeometry x="960" y="518" width="10" height="10" as="geometry" />
        </mxCell>
        <mxCell id="405" style="edgeStyle=none;html=1;exitX=0;exitY=0.5;exitDx=0;exitDy=0;dashed=1;strokeColor=#6F0000;strokeWidth=1;fontSize=10;fontColor=#C73500;startArrow=classic;startFill=1;endArrow=none;endFill=0;fillColor=#a20025;" parent="1" source="372" edge="1">
          <mxGeometry relative="1" as="geometry">
            <mxPoint x="900" y="608" as="targetPoint" />
            <Array as="points">
              <mxPoint x="900" y="523" />
            </Array>
          </mxGeometry>
        </mxCell>
        <mxCell id="372" value="" style="whiteSpace=wrap;html=1;aspect=fixed;fillColor=#f0a30a;strokeColor=#BD7000;fontColor=#000000;" parent="1" vertex="1">
          <mxGeometry x="940" y="518" width="10" height="10" as="geometry" />
        </mxCell>
        <mxCell id="373" value="" style="whiteSpace=wrap;html=1;aspect=fixed;fillColor=#fa6800;strokeColor=#C73500;fontColor=#000000;" parent="1" vertex="1">
          <mxGeometry x="970" y="508" width="10" height="10" as="geometry" />
        </mxCell>
        <mxCell id="375" value="" style="whiteSpace=wrap;html=1;aspect=fixed;fillColor=#f0a30a;strokeColor=#BD7000;fontColor=#000000;" parent="1" vertex="1">
          <mxGeometry x="970" y="518" width="10" height="10" as="geometry" />
        </mxCell>
        <mxCell id="376" value="&lt;font style=&quot;&quot;&gt;&lt;font color=&quot;#bd7000&quot; style=&quot;font-size: 20px;&quot;&gt;...&lt;/font&gt;&lt;br style=&quot;font-size: 14px;&quot;&gt;&lt;/font&gt;" style="text;html=1;align=center;verticalAlign=middle;resizable=0;points=[];autosize=1;strokeColor=none;fillColor=none;fontColor=default;rotation=0;fontStyle=1;fontSize=14;" parent="1" vertex="1">
          <mxGeometry x="969.9999999999998" y="496.9999999999998" width="40" height="40" as="geometry" />
        </mxCell>
        <mxCell id="377" value="&lt;font style=&quot;&quot;&gt;&lt;font color=&quot;#c73500&quot; style=&quot;font-size: 20px;&quot;&gt;...&lt;/font&gt;&lt;br style=&quot;font-size: 14px;&quot;&gt;&lt;/font&gt;" style="text;html=1;align=center;verticalAlign=middle;resizable=0;points=[];autosize=1;strokeColor=none;fillColor=none;fontColor=default;rotation=0;fontStyle=1;fontSize=14;" parent="1" vertex="1">
          <mxGeometry x="969.9999999999998" y="487.9999999999998" width="40" height="40" as="geometry" />
        </mxCell>
        <mxCell id="379" value="" style="whiteSpace=wrap;html=1;aspect=fixed;fillColor=#e51400;strokeColor=#B20000;fontColor=#ffffff;" parent="1" vertex="1">
          <mxGeometry x="940" y="578" width="10" height="10" as="geometry" />
        </mxCell>
        <mxCell id="380" value="" style="whiteSpace=wrap;html=1;aspect=fixed;fillColor=#e51400;strokeColor=#B20000;fontColor=#ffffff;" parent="1" vertex="1">
          <mxGeometry x="950" y="578" width="10" height="10" as="geometry" />
        </mxCell>
        <mxCell id="381" value="" style="whiteSpace=wrap;html=1;aspect=fixed;fillColor=#e51400;strokeColor=#B20000;fontColor=#ffffff;" parent="1" vertex="1">
          <mxGeometry x="960" y="578" width="10" height="10" as="geometry" />
        </mxCell>
        <mxCell id="382" value="" style="whiteSpace=wrap;html=1;aspect=fixed;fillColor=#f0a30a;strokeColor=#BD7000;fontColor=#000000;" parent="1" vertex="1">
          <mxGeometry x="950" y="588" width="10" height="10" as="geometry" />
        </mxCell>
        <mxCell id="383" value="" style="whiteSpace=wrap;html=1;aspect=fixed;fillColor=#f0a30a;strokeColor=#BD7000;fontColor=#000000;" parent="1" vertex="1">
          <mxGeometry x="960" y="588" width="10" height="10" as="geometry" />
        </mxCell>
        <mxCell id="384" value="" style="whiteSpace=wrap;html=1;aspect=fixed;fillColor=#f0a30a;strokeColor=#BD7000;fontColor=#000000;" parent="1" vertex="1">
          <mxGeometry x="940" y="588" width="10" height="10" as="geometry" />
        </mxCell>
        <mxCell id="385" value="" style="whiteSpace=wrap;html=1;aspect=fixed;fillColor=#e51400;strokeColor=#B20000;fontColor=#ffffff;" parent="1" vertex="1">
          <mxGeometry x="970" y="578" width="10" height="10" as="geometry" />
        </mxCell>
        <mxCell id="386" value="" style="whiteSpace=wrap;html=1;aspect=fixed;fillColor=#f0a30a;strokeColor=#BD7000;fontColor=#000000;" parent="1" vertex="1">
          <mxGeometry x="970" y="588" width="10" height="10" as="geometry" />
        </mxCell>
        <mxCell id="387" value="&lt;font style=&quot;&quot;&gt;&lt;font color=&quot;#bd7000&quot; style=&quot;font-size: 20px;&quot;&gt;...&lt;/font&gt;&lt;br style=&quot;font-size: 14px;&quot;&gt;&lt;/font&gt;" style="text;html=1;align=center;verticalAlign=middle;resizable=0;points=[];autosize=1;strokeColor=none;fillColor=none;fontColor=default;rotation=0;fontStyle=1;fontSize=14;" parent="1" vertex="1">
          <mxGeometry x="969.9999999999998" y="566.9999999999998" width="40" height="40" as="geometry" />
        </mxCell>
        <mxCell id="388" value="&lt;font style=&quot;&quot;&gt;&lt;font color=&quot;#c73500&quot; style=&quot;font-size: 20px;&quot;&gt;...&lt;/font&gt;&lt;br style=&quot;font-size: 14px;&quot;&gt;&lt;/font&gt;" style="text;html=1;align=center;verticalAlign=middle;resizable=0;points=[];autosize=1;strokeColor=none;fillColor=none;fontColor=default;rotation=0;fontStyle=1;fontSize=14;" parent="1" vertex="1">
          <mxGeometry x="969.9999999999998" y="557.9999999999998" width="40" height="40" as="geometry" />
        </mxCell>
        <mxCell id="397" value="&lt;font style=&quot;font-size: 10px;&quot;&gt;host-aggregations&lt;/font&gt;" style="text;html=1;align=center;verticalAlign=middle;resizable=0;points=[];autosize=1;strokeColor=none;fillColor=none;fontSize=16;fontColor=default;" parent="1" vertex="1">
          <mxGeometry x="920.0000000000002" y="470.5" width="100" height="30" as="geometry" />
        </mxCell>
        <mxCell id="399" value="&lt;font style=&quot;font-size: 10px;&quot;&gt;service-network-0&lt;/font&gt;" style="text;html=1;align=center;verticalAlign=middle;resizable=0;points=[];autosize=1;strokeColor=none;fillColor=none;fontSize=16;fontColor=default;" parent="1" vertex="1">
          <mxGeometry x="920.0000000000002" y="398" width="100" height="30" as="geometry" />
        </mxCell>
        <mxCell id="400" value="&lt;font style=&quot;font-size: 10px;&quot;&gt;host-aggregations&lt;/font&gt;" style="text;html=1;align=center;verticalAlign=middle;resizable=0;points=[];autosize=1;strokeColor=none;fillColor=none;fontSize=16;fontColor=default;" parent="1" vertex="1">
          <mxGeometry x="920.0000000000002" y="598" width="100" height="30" as="geometry" />
        </mxCell>
        <mxCell id="401" value="&lt;font style=&quot;font-size: 10px;&quot;&gt;service-network-1&lt;/font&gt;" style="text;html=1;align=center;verticalAlign=middle;resizable=0;points=[];autosize=1;strokeColor=none;fillColor=none;fontSize=16;fontColor=default;" parent="1" vertex="1">
          <mxGeometry x="920.0000000000002" y="618" width="100" height="30" as="geometry" />
        </mxCell>
        <mxCell id="407" value="&lt;font style=&quot;font-size: 12px;&quot;&gt;Service network &lt;br&gt;infrastructure&lt;/font&gt;" style="text;html=1;align=center;verticalAlign=middle;resizable=0;points=[];autosize=1;strokeColor=none;fillColor=none;fontSize=16;fontColor=default;" parent="1" vertex="1">
          <mxGeometry x="670.0000000000002" y="633" width="110" height="50" as="geometry" />
        </mxCell>
        <mxCell id="408" value="" style="ellipse;whiteSpace=wrap;html=1;aspect=fixed;dashed=1;strokeColor=default;strokeWidth=2;fontSize=10;fontColor=#C73500;fillColor=none;" parent="1" vertex="1">
          <mxGeometry x="690" y="518" width="125.5" height="125.5" as="geometry" />
        </mxCell>
        <mxCell id="412" value="&lt;font style=&quot;font-size: 12px;&quot;&gt;Virtualisation network &lt;br&gt;infrastructure&lt;/font&gt;" style="text;html=1;align=center;verticalAlign=middle;resizable=0;points=[];autosize=1;strokeColor=none;fillColor=none;fontSize=16;fontColor=default;" parent="1" vertex="1">
          <mxGeometry x="710.0000000000002" y="218" width="140" height="50" as="geometry" />
        </mxCell>
        <mxCell id="413" value="&lt;font style=&quot;font-size: 12px;&quot;&gt;Region bridge network &lt;br&gt;infrastructure&lt;/font&gt;" style="text;html=1;align=center;verticalAlign=middle;resizable=0;points=[];autosize=1;strokeColor=none;fillColor=none;fontSize=16;fontColor=default;" parent="1" vertex="1">
          <mxGeometry x="530.0000000000002" y="483" width="140" height="50" as="geometry" />
        </mxCell>
        <mxCell id="419" value="&lt;span style=&quot;font-size: 12px;&quot;&gt;&lt;font color=&quot;#432d57&quot;&gt;Datacenter Network &lt;br&gt;Infrastructure&lt;/font&gt;&lt;br&gt;&lt;/span&gt;" style="text;html=1;align=center;verticalAlign=middle;resizable=0;points=[];autosize=1;strokeColor=none;fillColor=none;fontSize=16;fontColor=default;" parent="1" vertex="1">
          <mxGeometry x="475.0000000000002" y="588" width="130" height="50" as="geometry" />
        </mxCell>
        <mxCell id="421" value="&lt;font style=&quot;font-size: 12px;&quot;&gt;OpenStack&lt;br&gt;environment&lt;/font&gt;" style="text;html=1;align=center;verticalAlign=middle;resizable=0;points=[];autosize=1;strokeColor=none;fillColor=none;fontSize=16;fontColor=default;" parent="1" vertex="1">
          <mxGeometry x="750.0000000000002" y="478" width="90" height="50" as="geometry" />
        </mxCell>
        <mxCell id="422" value="&lt;span style=&quot;font-size: 12px;&quot;&gt;ISP-routers&lt;/span&gt;" style="text;html=1;align=center;verticalAlign=middle;resizable=0;points=[];autosize=1;strokeColor=none;fillColor=none;fontSize=16;fontColor=default;rotation=-90;" parent="1" vertex="1">
          <mxGeometry x="150.00000000000023" y="225.25" width="80" height="30" as="geometry" />
        </mxCell>
        <mxCell id="424" value="&lt;font style=&quot;font-size: 12px;&quot;&gt;computational-network-0&lt;br&gt;&lt;/font&gt;" style="text;html=1;align=center;verticalAlign=middle;resizable=0;points=[];autosize=1;strokeColor=none;fillColor=none;fontSize=16;fontColor=default;" parent="1" vertex="1">
          <mxGeometry x="201.00000000000023" y="128" width="149" height="31" as="geometry" />
        </mxCell>
        <mxCell id="428" value="&lt;font style=&quot;font-size: 12px;&quot;&gt;computational-network-0&lt;br&gt;&lt;/font&gt;" style="text;html=1;align=center;verticalAlign=middle;resizable=0;points=[];autosize=1;strokeColor=none;fillColor=none;fontSize=16;fontColor=default;" parent="1" vertex="1">
          <mxGeometry x="790.0000000000002" y="383" width="150" height="30" as="geometry" />
        </mxCell>
        <mxCell id="264" style="edgeStyle=none;html=1;exitX=1;exitY=0.5;exitDx=0;exitDy=0;entryX=0;entryY=0.5;entryDx=0;entryDy=0;dashed=1;strokeColor=#006EAF;fontSize=30;fontColor=#990000;startArrow=none;startFill=0;endArrow=none;endFill=0;fillColor=#1ba1e2;" parent="1" source="133" target="246" edge="1">
          <mxGeometry relative="1" as="geometry" />
        </mxCell>
        <mxCell id="430" value="&lt;font style=&quot;font-size: 12px;&quot;&gt;OpenStack&lt;br&gt;environment&lt;/font&gt;" style="text;html=1;align=center;verticalAlign=middle;resizable=0;points=[];autosize=1;strokeColor=none;fillColor=none;fontSize=16;fontColor=default;" parent="1" vertex="1">
          <mxGeometry x="545.0000000000002" y="215.25" width="90" height="50" as="geometry" />
        </mxCell>
        <mxCell id="450" value="&lt;font style=&quot;font-size: 14px;&quot;&gt;global-region-...&lt;/font&gt;" style="text;html=1;align=center;verticalAlign=middle;resizable=0;points=[];autosize=1;strokeColor=none;fillColor=none;fontSize=16;fontColor=default;rotation=0;" parent="1" vertex="1">
          <mxGeometry x="730.0000000000002" y="148" width="120" height="30" as="geometry" />
        </mxCell>
        <mxCell id="452" value="&lt;font style=&quot;font-size: 14px;&quot;&gt;&lt;b&gt;DRNs&lt;/b&gt;&lt;/font&gt;" style="text;html=1;align=center;verticalAlign=middle;resizable=0;points=[];autosize=1;strokeColor=none;fillColor=none;fontSize=16;fontColor=default;rotation=0;" parent="1" vertex="1">
          <mxGeometry x="260.0000000000002" y="263" width="60" height="30" as="geometry" />
        </mxCell>
        <mxCell id="453" value="&lt;font style=&quot;font-size: 14px;&quot;&gt;&lt;b&gt;DRNs&lt;/b&gt;&lt;/font&gt;" style="text;html=1;align=center;verticalAlign=middle;resizable=0;points=[];autosize=1;strokeColor=none;fillColor=none;fontSize=16;fontColor=default;rotation=0;" parent="1" vertex="1">
          <mxGeometry x="260.0000000000002" y="560.5" width="60" height="30" as="geometry" />
        </mxCell>
        <mxCell id="454" value="&lt;font style=&quot;font-size: 14px;&quot;&gt;&lt;b&gt;DRNs&lt;/b&gt;&lt;/font&gt;" style="text;html=1;align=center;verticalAlign=middle;resizable=0;points=[];autosize=1;strokeColor=none;fillColor=none;fontSize=16;fontColor=default;rotation=-90;" parent="1" vertex="1">
          <mxGeometry x="200.00000000000023" y="413" width="60" height="30" as="geometry" />
        </mxCell>
        <mxCell id="455" value="" style="rounded=0;whiteSpace=wrap;html=1;dashed=1;strokeColor=#005700;strokeWidth=2;fontSize=20;fontColor=#ffffff;fillColor=none;" parent="1" vertex="1">
          <mxGeometry x="313" y="168" width="33" height="110" as="geometry" />
        </mxCell>
        <mxCell id="457" value="" style="rounded=0;whiteSpace=wrap;html=1;dashed=1;strokeColor=#005700;strokeWidth=2;fontSize=20;fontColor=#ffffff;fillColor=none;" parent="1" vertex="1">
          <mxGeometry x="233.5" y="578" width="33" height="110" as="geometry" />
        </mxCell>
        <mxCell id="459" value="" style="rounded=0;whiteSpace=wrap;html=1;dashed=1;strokeColor=#005700;strokeWidth=2;fontSize=20;fontColor=#ffffff;fillColor=none;" parent="1" vertex="1">
          <mxGeometry x="313.5" y="578" width="33" height="110" as="geometry" />
        </mxCell>
        <mxCell id="461" value="&lt;span style=&quot;font-size: 12px;&quot;&gt;ISP-routers&lt;/span&gt;" style="text;html=1;align=center;verticalAlign=middle;resizable=0;points=[];autosize=1;strokeColor=none;fillColor=none;fontSize=16;fontColor=default;rotation=-90;" parent="1" vertex="1">
          <mxGeometry x="150.00000000000023" y="603" width="80" height="30" as="geometry" />
        </mxCell>
      </root>
    </mxGraphModel>
  </diagram>
</mxfile>
